<?xml version="1.0" standalone="no"?>
<!DOCTYPE svg PUBLIC "-//W3C//DTD SVG 20010904//EN"
 "http://www.w3.org/TR/2001/REC-SVG-20010904/DTD/svg10.dtd">
<svg version="1.0" xmlns="http://www.w3.org/2000/svg"
 width="1200.000000pt" height="630.000000pt" viewBox="0 0 1200.000000 630.000000"
 preserveAspectRatio="xMidYMid meet">
<metadata>
Created by potrace 1.16, written by Peter Selinger 2001-2019
</metadata>
<g transform="translate(0.000000,630.000000) scale(0.100000,-0.100000)"
fill="#000000" stroke="none">
<path d="M0 4615 l0 -1684 72 6 c40 3 75 7 77 9 2 2 10 -1 18 -7 18 -16 18
-12 -17 161 -30 148 -35 217 -20 275 6 22 8 6 9 -55 2 -88 5 -109 65 -403 39
-196 44 -236 16 -139 -9 35 -22 67 -26 71 -5 4 -51 3 -102 -2 l-92 -9 0 -407
0 -408 123 19 c67 11 142 22 167 25 25 2 46 6 48 7 1 2 6 23 11 47 6 32 9 -10
10 -146 0 -123 -3 -185 -9 -175 -6 10 -25 15 -56 15 -29 0 -49 5 -52 13 -2 7
5 12 17 12 12 0 21 5 21 10 0 6 -7 10 -15 10 -8 0 -19 10 -26 21 -8 15 -8 19
0 15 17 -11 14 57 -4 80 -13 16 -14 16 -9 2 4 -12 1 -18 -7 -18 -10 -1 -9 -5
3 -14 23 -17 23 -36 0 -36 -10 0 -23 -5 -30 -12 -9 -9 -12 -9 -12 0 0 7 5 12
10 12 6 0 10 7 10 15 0 20 -6 19 -31 -6 -15 -15 -24 -18 -33 -9 -8 5 -21 8
-30 4 -11 -4 -16 -1 -16 12 0 11 -8 28 -17 39 -15 19 -15 19 -9 -9 6 -26 5
-28 -8 -17 -9 8 -16 22 -16 32 0 12 -7 19 -20 19 -20 0 -20 -7 -20 -995 l0
-995 1105 0 c1093 1 1105 1 1095 20 -10 19 -10 19 24 0 41 -25 93 -23 121 4
17 16 17 18 3 13 -10 -4 -18 -2 -18 4 0 6 -5 7 -12 3 -7 -4 -8 -3 -4 5 4 6 11
9 16 6 5 -3 14 3 20 12 10 17 10 17 8 -1 -4 -28 18 -31 26 -4 5 14 9 18 13 10
3 -7 -1 -20 -9 -29 -11 -14 -11 -16 2 -11 8 2 20 14 25 25 8 15 16 18 38 12
16 -4 25 -4 21 2 -3 5 1 16 10 24 19 19 30 19 22 -1 -3 -8 -2 -12 4 -9 6 3 10
14 11 23 0 12 2 13 6 4 4 -10 9 -8 20 8 11 15 18 18 28 10 9 -7 16 -6 25 5 7
8 18 15 24 14 6 -1 26 -1 45 0 26 1 32 4 27 17 -4 12 -2 15 9 11 8 -4 17 -2
20 3 4 6 15 10 26 10 10 0 19 3 19 8 0 4 9 13 21 20 12 8 18 9 14 3 -3 -6 -1
-11 4 -11 6 0 16 9 23 20 7 11 23 20 35 20 12 0 25 5 28 10 4 6 12 9 18 8 7
-1 21 3 33 9 17 10 21 9 21 -3 0 -7 -4 -14 -8 -14 -5 0 -24 -13 -42 -30 -19
-16 -37 -26 -41 -22 -4 4 -6 0 -4 -8 2 -8 -3 -15 -9 -16 -7 -1 -18 -2 -24 -3
-5 0 -7 -6 -4 -11 3 -6 -5 -10 -19 -10 -20 0 -24 -4 -19 -17 4 -11 3 -14 -5
-9 -7 4 -24 -2 -38 -13 -20 -16 -31 -18 -45 -11 -15 9 -17 7 -12 -6 8 -22 -16
-35 -52 -29 -27 5 -28 5 -12 -8 24 -20 22 -22 -20 -25 -20 -1 -42 -7 -48 -12
-7 -6 -21 -7 -31 -3 -17 6 -17 5 -5 -10 13 -16 237 -17 3428 -17 3249 0 3415
1 3408 18 -4 9 -9 34 -12 56 -8 54 13 44 46 -22 l26 -51 66 0 c38 -1 70 4 77
11 9 9 12 9 12 0 0 -9 123 -12 525 -12 289 0 524 3 524 8 -4 26 1 34 16 22 13
-11 13 -15 3 -21 -7 -5 129 -8 302 -8 l315 1 -100 18 c-55 9 -120 23 -145 30
-25 7 -56 14 -70 16 -14 2 -41 6 -60 9 -19 4 -57 10 -85 15 -77 12 -213 40
-283 56 -58 14 -64 14 -80 -2 -16 -17 -16 -18 2 -11 20 8 56 -21 56 -44 0 -7
11 -10 30 -7 17 3 30 1 30 -4 0 -4 -6 -8 -12 -9 -7 0 -4 -4 7 -9 27 -12 37
-12 30 0 -3 5 0 7 8 4 12 -4 22 -54 12 -54 -2 0 -39 7 -82 16 -43 9 -103 20
-133 25 -30 5 -62 11 -70 12 -8 2 -35 7 -60 11 -25 4 -65 11 -90 17 -48 10
-218 39 -260 44 -14 1 -72 12 -130 23 -140 27 -180 34 -210 37 -14 1 -60 12
-102 24 -43 11 -91 21 -108 21 -22 0 -31 5 -35 23 -7 27 0 166 9 188 8 18 131
49 195 49 20 0 87 7 147 16 60 8 167 22 238 30 82 9 136 20 146 29 13 12 27
13 76 5 32 -6 60 -10 61 -10 11 0 11 81 -1 185 -8 72 -20 204 -26 295 -6 91
-14 189 -19 217 -14 93 5 139 40 97 10 -12 10 -24 0 -64 -11 -43 -10 -53 9
-94 18 -40 23 -84 36 -304 9 -169 19 -268 29 -288 13 -31 14 -32 61 -23 27 5
66 18 89 29 49 24 101 29 343 34 115 2 182 0 182 -6 0 -6 6 -8 14 -5 21 8 53
-27 60 -68 5 -23 14 -39 25 -42 13 -3 17 -11 13 -28 -3 -16 1 -25 15 -28 15
-4 14 -5 -4 -6 -17 -1 -23 5 -24 22 0 12 -3 16 -6 9 -12 -30 6 -57 38 -59 17
-1 39 -9 48 -16 9 -7 27 -14 41 -15 13 -1 34 -5 45 -10 11 -6 66 -18 123 -28
56 -10 102 -22 102 -26 0 -5 18 -8 40 -8 22 0 57 -7 77 -15 20 -9 44 -13 54
-10 9 3 20 1 24 -5 4 -6 15 -8 25 -5 10 3 21 2 24 -4 3 -5 16 -7 28 -3 13 3
19 1 15 -5 -4 -6 4 -13 18 -15 18 -4 25 -1 25 10 0 13 3 12 14 -4 8 -10 19
-19 25 -19 6 0 21 -15 34 -32 13 -18 27 -30 30 -27 3 4 14 -2 24 -12 13 -12
14 -19 5 -22 -17 -5 -15 -32 3 -32 9 0 18 -12 22 -30 3 -16 12 -30 19 -30 8 0
14 -4 14 -10 0 -5 -4 -10 -10 -10 -5 0 -7 -6 -4 -14 3 -8 12 -12 20 -9 9 3 14
-2 14 -16 0 -12 6 -21 15 -21 13 0 15 357 15 3150 l0 3150 -500 0 c-405 0
-500 -2 -500 -13 0 -34 -26 -45 -129 -56 -93 -10 -106 -9 -123 5 -10 10 -18
28 -18 41 0 21 -4 23 -55 23 l-55 0 0 -35 c0 -19 -4 -35 -10 -35 -5 0 -10 16
-10 35 l0 35 -86 0 c-81 0 -86 -1 -81 -20 7 -27 -9 -36 -78 -43 -198 -21 -315
-36 -327 -43 -7 -4 -19 -16 -26 -26 -7 -10 -18 -15 -24 -12 -5 4 -23 -3 -39
-15 -19 -14 -57 -26 -108 -33 -70 -11 -82 -10 -106 6 -17 11 -26 25 -25 39 1
12 2 50 1 85 l-1 63 -42 -3 -43 -3 0 -92 1 -93 -41 0 c-35 0 -47 -6 -82 -42
-33 -35 -85 -111 -58 -86 7 6 35 -14 35 -25 0 -2 -55 -10 -122 -16 -160 -15
-195 -18 -303 -31 -142 -16 -427 -40 -464 -40 -71 0 -14 18 78 25 52 4 105 11
118 16 14 5 23 5 23 -1 0 -6 5 -10 10 -10 6 0 10 6 10 14 0 8 10 14 25 14 14
0 25 -5 25 -10 0 -5 9 -4 20 2 21 11 28 40 10 40 -5 0 -10 -4 -10 -9 0 -7 -40
-8 -47 -1 -2 1 -8 3 -13 4 -6 0 -21 13 -34 29 -13 15 -29 27 -36 27 -8 0 -10
8 -7 23 4 12 2 29 -3 37 -9 13 -11 13 -20 0 -5 -8 -10 -20 -10 -26 0 -16 -26
-25 -47 -17 -11 4 -14 3 -9 -5 11 -17 -5 -15 -26 5 -22 20 -77 22 -140 4 l-48
-14 0 -53 c0 -29 5 -65 10 -80 6 -15 9 -28 8 -30 -8 -7 -181 -24 -196 -20 -14
5 -17 18 -15 70 2 81 -14 145 -36 148 -98 9 -111 2 -111 -64 0 -61 -19 -106
-50 -121 -16 -8 -30 -12 -32 -8 -5 13 -78 0 -78 -14 0 -10 19 -11 81 -8 59 4
80 2 75 -6 -4 -6 -23 -11 -42 -11 -20 0 -88 -9 -152 -20 -139 -23 -525 -65
-742 -80 -85 -6 -227 -20 -315 -31 -186 -25 -334 -28 -388 -10 -38 13 -57 42
-87 134 -18 56 -52 70 -154 63 -44 -3 -133 -8 -196 -11 -63 -3 -135 -7 -160
-10 -25 -2 -74 -7 -110 -10 -36 -3 -105 -10 -155 -15 -184 -19 -231 -23 -287
-24 -31 -1 -59 -4 -63 -8 -7 -7 -26 -1 -105 35 -84 38 -178 23 -245 -39 -14
-13 -35 -24 -46 -24 -11 0 -22 -6 -24 -12 -4 -10 -46 -13 -163 -13 -155 -1
-157 -1 -183 -26 -14 -14 -23 -31 -21 -37 5 -15 -40 -32 -83 -32 -18 0 -40 -3
-49 -6 -17 -7 -65 -73 -96 -134 -11 -21 -44 -62 -74 -90 -62 -59 -94 -116 -97
-175 -2 -31 -12 -50 -41 -83 -21 -23 -43 -54 -48 -68 -6 -14 -14 -23 -19 -20
-5 3 -15 -2 -22 -12 -13 -15 -12 -16 4 -3 25 19 21 -2 -4 -25 -12 -10 -30 -38
-39 -60 -20 -45 -35 -60 -45 -44 -4 6 -13 7 -23 2 -9 -5 -64 -10 -122 -11 -58
-2 -107 -4 -110 -6 -3 -2 -48 -6 -100 -10 -152 -10 -339 -24 -400 -30 -19 -2
-111 -6 -205 -10 -93 -4 -173 -9 -177 -11 -3 -2 -95 -7 -205 -9 -109 -3 -205
-8 -214 -11 -9 -2 -26 5 -40 16 -21 19 -23 28 -21 88 1 37 5 79 8 95 5 25 8
27 49 23 36 -4 45 -1 50 13 4 13 13 17 29 14 13 -3 27 0 30 6 4 5 13 8 21 4 8
-3 15 -1 15 5 0 5 16 8 35 6 19 -1 35 2 35 7 0 6 8 9 18 8 9 -1 20 0 25 1 9 3
50 8 99 13 21 2 41 7 45 10 3 4 12 2 20 -4 10 -9 13 -8 13 1 0 9 3 10 14 1 10
-9 15 -8 19 2 4 10 19 13 49 12 23 -2 48 1 55 7 7 6 14 5 17 -1 4 -6 16 -7 29
-2 12 4 41 7 65 6 23 -1 42 2 42 7 0 4 13 6 29 3 17 -3 33 -1 36 5 3 5 11 10
16 10 6 0 7 -5 3 -11 -4 -7 0 -9 12 -5 11 3 50 7 87 8 37 2 67 5 67 8 0 3 19
4 42 4 50 -2 148 47 155 77 3 11 9 19 14 19 5 0 9 12 9 26 0 17 4 23 13 18 6
-4 4 2 -5 12 -13 15 -17 33 -14 65 2 24 0 49 -6 56 -6 7 -5 14 2 18 6 3 7 11
3 18 -15 24 -3 92 20 111 15 13 18 20 10 23 -9 3 -10 10 -3 22 5 10 9 26 8 37
-2 41 14 199 22 213 4 8 4 28 -1 44 -8 30 -4 51 9 43 10 -6 8 46 -1 62 -5 6
-4 12 0 12 15 0 32 78 19 85 -8 3 -7 7 1 11 8 3 11 15 7 28 -3 14 1 29 10 38
11 11 12 18 3 27 -8 8 -8 11 0 11 6 0 13 7 17 15 5 13 -199 15 -1799 15
l-1805 0 0 -1685z m6457 796 c12 -54 28 -56 194 -36 20 3 43 -1 53 -8 17 -13
17 -14 1 -30 -10 -11 -32 -17 -60 -17 -59 0 -79 -8 -64 -26 16 -19 -7 -46 -35
-42 -15 2 -21 10 -21 27 -1 33 -22 38 -36 8 -8 -17 -8 -35 0 -65 10 -36 15
-40 38 -38 16 2 29 11 34 23 5 15 20 22 61 26 92 12 138 9 138 -8 0 -8 -4 -15
-10 -15 -5 0 -10 -5 -10 -10 0 -11 156 -6 330 10 92 9 127 2 104 -19 -5 -5
-115 -21 -244 -36 -129 -15 -241 -31 -249 -35 -15 -8 199 -5 314 4 48 4 65 3
54 -4 -9 -5 -63 -12 -120 -16 -57 -3 -115 -10 -129 -14 -26 -10 -58 -15 -155
-26 -45 -6 -54 -9 -35 -14 36 -9 33 -41 -5 -52 -16 -4 -38 -5 -47 -2 -22 7
-23 40 -3 52 9 5 14 18 12 33 -4 22 -9 25 -36 21 -18 -3 -22 -40 -7 -81 7 -23
12 -51 9 -61 -3 -11 1 -28 8 -37 10 -12 11 -17 2 -20 -7 -3 -10 -17 -6 -41 7
-45 6 -44 38 -48 21 -2 25 1 20 16 -8 24 11 29 110 29 44 0 126 2 183 4 180 8
130 -11 -103 -38 -22 -2 -42 -5 -45 -5 -3 -1 15 -7 39 -13 78 -21 58 -43 -48
-53 -119 -11 -162 -17 -167 -25 -11 -18 -3 -117 12 -141 3 -4 0 -8 -6 -8 -6 0
-9 -4 -6 -9 9 -13 17 -94 31 -285 2 -32 7 -67 11 -78 4 -15 3 -18 -6 -13 -9 6
-10 1 -4 -16 4 -13 8 -43 8 -66 -1 -24 2 -43 6 -43 4 0 4 -20 0 -45 -4 -29 -3
-46 4 -49 6 -2 3 -5 -6 -5 -12 -1 -16 -9 -16 -31 1 -16 5 -30 9 -30 4 0 1 -19
-7 -42 -8 -24 -13 -55 -10 -70 3 -15 1 -30 -4 -33 -6 -3 -10 0 -10 7 0 7 -5
42 -10 78 -5 36 -11 85 -15 110 -3 25 -12 99 -20 165 -8 66 -22 180 -30 253
-8 73 -22 186 -30 250 -20 156 -22 174 -40 342 -8 80 -20 188 -25 240 -6 52
-13 125 -17 162 l-6 66 37 -1 c31 -1 38 -5 43 -26z m-745 -233 c64 -69 203
-347 216 -430 10 -62 8 -68 -20 -68 -22 0 -23 8 -2 31 25 28 9 57 -38 70 -23
6 -49 8 -60 6 -10 -3 -25 1 -32 9 -8 8 -21 14 -30 14 -8 0 -18 5 -21 10 -3 6
-15 10 -26 10 -19 0 -92 41 -103 58 -3 5 11 39 30 75 35 67 35 67 12 68 -16 1
-18 3 -6 6 14 3 17 13 14 51 -2 26 -8 58 -14 72 -5 14 -7 31 -5 38 3 6 0 12
-6 12 -6 0 -11 5 -11 10 0 6 12 10 27 10 20 0 40 -14 75 -52z m1224 -189 c9
-16 4 -17 -91 -29 -50 -6 -99 -13 -110 -15 -11 -2 -39 -4 -62 -4 -24 -1 -43
-5 -43 -10 0 -5 37 -8 82 -6 45 2 89 0 99 -6 10 -5 20 -5 23 -1 3 4 47 9 98
11 51 1 101 4 111 7 9 3 17 1 17 -4 0 -10 -49 -18 -175 -28 -38 -3 -88 -9
-110 -14 -22 -4 -69 -11 -105 -15 -36 -3 -74 -9 -85 -11 -15 -4 -16 -3 -6 4 7
5 11 14 7 20 -3 6 3 17 14 25 20 14 19 14 -7 26 -25 11 -25 13 -9 29 13 14 42
18 144 22 70 3 144 6 164 7 21 1 40 -3 44 -8z m-1091 -285 c14 -9 25 -24 25
-34 0 -10 6 -20 13 -23 18 -7 -52 -73 -99 -93 -21 -9 -67 -25 -100 -34 -34
-10 -71 -21 -83 -25 -16 -5 -21 -2 -21 13 0 18 25 37 43 33 4 0 17 8 29 19 17
16 24 17 37 7 12 -9 13 -9 7 0 -4 7 2 25 12 40 10 16 31 47 46 71 29 46 51 52
91 26z m240 -225 c28 -28 72 -66 98 -86 86 -64 99 -123 40 -182 -21 -20 -49
-44 -62 -52 -24 -15 -24 -17 -11 -50 7 -19 22 -45 32 -58 23 -30 23 -63 -1
-92 -18 -22 -18 -23 6 -57 l23 -35 -20 -31 c-44 -69 -44 -72 -21 -126 21 -49
21 -54 7 -102 -13 -45 -13 -53 1 -74 22 -34 10 -68 -46 -128 -69 -72 -82 -108
-62 -169 13 -40 13 -54 2 -90 -38 -127 -56 -287 -31 -287 6 0 10 -9 10 -19 0
-16 66 -112 90 -131 30 -24 35 -110 14 -279 -2 -18 5 -63 17 -100 19 -59 37
-238 43 -411 1 -43 0 -44 -37 -53 -30 -7 -41 -6 -50 6 -14 19 -65 39 -78 31
-5 -3 -9 66 -10 168 -2 332 -7 425 -27 460 -11 18 -27 74 -36 123 -9 50 -21
110 -26 134 -4 24 -6 50 -3 58 3 7 1 13 -5 13 -6 0 -8 8 -6 18 3 10 -4 22 -16
30 -22 13 -22 13 -15 -55 4 -37 11 -84 16 -103 14 -54 12 -80 -7 -73 -8 3 -13
12 -9 21 3 8 -2 26 -11 40 -10 15 -14 35 -10 52 3 17 1 30 -6 32 -8 3 -8 10
-1 22 5 9 8 30 5 45 -3 22 -11 30 -31 34 -32 7 -99 2 -123 -8 -24 -10 -36 50
-13 74 15 17 15 20 0 35 -15 14 -15 16 -1 16 25 0 19 13 -17 38 -17 12 -26 22
-19 22 10 0 9 5 -2 23 -7 12 -16 34 -20 50 -6 24 -3 27 18 27 13 0 26 -4 28
-10 2 -6 9 -6 17 0 12 7 13 13 2 36 -7 16 -14 50 -17 76 -2 26 -22 91 -44 143
-46 109 -64 183 -48 203 8 9 7 11 -6 6 -10 -4 -16 -1 -16 9 0 8 6 17 13 20 9
3 9 9 0 28 -17 35 -32 119 -27 154 4 27 3 28 -5 8 -6 -14 -19 -23 -32 -23 -18
0 -21 5 -17 29 2 17 1 28 -3 25 -4 -2 -10 0 -14 6 -3 5 -2 10 3 10 6 0 8 9 5
20 -3 11 -12 20 -20 20 -8 0 -11 5 -8 10 3 6 -2 10 -11 10 -27 0 -4 17 32 24
28 6 32 4 50 -33 10 -23 22 -41 25 -41 15 0 60 -134 89 -260 32 -135 54 -189
113 -263 29 -36 31 -36 50 -20 10 10 22 17 26 17 16 -4 51 17 61 36 8 15 18
20 31 17 15 -4 19 -1 17 11 -2 12 -15 18 -46 20 -23 2 -40 7 -37 13 4 5 -1 9
-10 9 -8 0 -18 7 -21 15 -3 8 -15 17 -26 21 -36 11 -78 65 -76 96 1 16 5 31 8
33 5 3 4 152 -3 250 -3 33 0 68 5 77 6 13 3 26 -13 47 -12 16 -19 36 -16 44 3
8 1 19 -4 24 -6 6 -11 27 -12 48 -2 21 -8 40 -15 43 -9 3 -8 11 3 32 9 18 11
31 5 35 -6 3 -10 14 -9 23 0 11 3 12 6 5 7 -19 20 -16 26 7 4 17 10 20 34 14
15 -4 42 -16 58 -26 36 -22 78 -23 95 -3 10 13 15 9 31 -22 10 -20 24 -52 30
-72 7 -20 28 -55 47 -78 29 -35 37 -39 48 -28 8 7 19 15 26 17 6 2 8 9 4 16
-5 9 -11 9 -26 0 -11 -7 -22 -9 -26 -5 -9 8 16 46 59 89 31 32 59 68 84 111
10 18 2 29 -85 113 -53 51 -92 93 -87 94 6 0 33 -23 60 -51z m696 -510 c7 4
75 7 149 7 111 -1 135 -4 135 -16 0 -21 -50 -28 -202 -31 -73 -1 -152 -5 -176
-9 -53 -8 -67 -4 -67 21 0 11 9 21 23 24 42 9 82 11 103 4 11 -4 27 -4 35 0z
m-2707 -642 c37 -19 98 -43 135 -53 37 -10 91 -35 124 -57 32 -22 60 -37 63
-34 3 3 -10 16 -30 29 -20 13 -36 26 -36 31 0 20 179 -93 246 -155 56 -51 128
-137 122 -144 -3 -2 -31 16 -62 41 -62 51 -76 48 -21 -5 35 -34 38 -55 5 -45
-14 5 -16 1 -12 -21 4 -21 2 -25 -9 -19 -8 4 0 -5 16 -19 77 -68 165 -161 165
-174 0 -12 -7 -9 -27 10 -44 40 -69 50 -83 33 -15 -18 6 -56 48 -82 40 -26 82
-65 82 -76 0 -5 -7 -4 -14 3 -8 6 -31 13 -50 14 -29 3 -35 -1 -41 -21 -5 -20
-8 -23 -20 -13 -10 8 -15 9 -15 2 0 -20 64 -72 82 -66 12 3 15 0 11 -14 -2
-10 6 -36 18 -58 12 -21 19 -36 15 -32 -5 4 -17 -2 -29 -12 -23 -22 -39 -18
-30 7 5 11 3 14 -6 8 -11 -6 -11 -3 0 16 11 21 11 23 -3 11 -13 -10 -17 -10
-21 2 -3 7 0 19 6 25 9 10 5 11 -18 5 -16 -4 -31 -8 -33 -10 -6 -4 -42 35 -42
45 0 5 5 11 12 13 12 4 -19 68 -34 68 -15 0 -19 -21 -7 -36 14 -17 12 -19 -18
-28 -12 -4 -24 -2 -28 4 -3 5 2 10 13 10 14 0 19 5 15 18 -2 10 7 31 21 47 32
37 33 47 2 39 -16 -4 -27 -1 -33 9 -4 9 -19 18 -33 20 -14 2 -37 9 -52 15 -50
21 -30 80 24 73 13 -2 16 3 12 14 -4 11 -13 14 -28 9 -30 -9 -58 -36 -52 -50
3 -7 -9 -15 -31 -19 -38 -7 -49 -3 -38 15 5 8 10 8 20 0 18 -15 25 0 14 29 -5
12 -15 21 -22 18 -16 -6 -41 20 -27 28 6 3 10 10 10 16 0 11 -30 13 -30 2 0
-5 -12 -16 -25 -26 -18 -13 -23 -14 -19 -3 3 8 0 17 -6 21 -9 6 -9 10 1 16 7
4 10 12 5 16 -4 4 -14 -1 -22 -11 -13 -18 -19 -12 -15 16 0 4 -8 10 -19 13
-11 4 -20 11 -20 16 0 5 -7 9 -15 9 -8 0 -15 5 -15 10 0 6 -9 10 -20 10 -12 0
-20 7 -20 16 0 14 -3 14 -15 4 -8 -7 -15 -19 -15 -26 0 -8 -4 -14 -10 -14 -5
0 -7 -8 -3 -17 4 -13 0 -11 -15 5 -11 13 -29 23 -39 22 -31 -4 -39 0 -23 10 8
5 11 12 7 17 -5 4 -12 1 -17 -7 -5 -8 -12 -11 -16 -8 -3 4 -15 -3 -25 -15 -22
-26 -25 -10 -5 29 16 29 10 50 -20 75 -16 13 -16 12 -5 -10 11 -20 11 -25 -3
-33 -9 -5 -16 -17 -15 -26 0 -10 3 -12 6 -4 7 17 23 15 23 -3 0 -20 -50 -40
-60 -25 -12 20 -41 0 -34 -24 3 -11 -16 8 -43 44 -27 36 -48 67 -46 70 3 3 13
-6 23 -20 10 -14 22 -21 26 -17 4 4 -6 21 -22 38 -26 28 -26 30 -6 20 13 -7
33 -29 45 -49 16 -27 23 -32 25 -19 5 25 19 21 26 -8 6 -23 26 -36 26 -17 0
18 -33 53 -46 48 -9 -3 -26 10 -44 36 -30 41 -39 65 -20 53 6 -3 10 -1 10 6 0
7 11 2 25 -11 15 -14 25 -18 25 -11 0 11 3 11 15 1 12 -10 13 -15 3 -28 -11
-13 -10 -14 1 -11 23 8 23 23 1 49 -23 26 -26 42 -7 35 7 -3 20 7 29 22 9 14
24 27 34 28 11 2 27 6 38 10 16 7 17 5 11 -15 -7 -23 -7 -23 18 -4 14 11 28
27 30 37 3 9 13 17 22 17 10 0 24 8 31 18 13 16 14 16 7 -2 -5 -16 -3 -18 15
-14 12 4 22 3 22 -2 0 -4 11 -5 25 -2 14 2 25 8 25 13 0 5 8 9 17 9 9 0 13 -3
10 -7 -8 -7 11 -33 25 -33 6 0 8 7 4 15 -3 9 0 15 9 15 8 0 15 -9 15 -19 0
-12 9 -21 26 -25 14 -4 46 -16 70 -28 42 -19 74 -19 74 1 0 5 -7 12 -16 15
-14 5 -15 4 -4 -9 13 -16 10 -18 -14 -9 -9 3 -13 11 -10 16 7 12 -14 28 -36
28 -13 0 -13 -1 0 -11 13 -9 13 -10 0 -6 -8 2 -14 10 -12 16 1 6 -10 17 -25
23 -16 7 -53 27 -83 45 -52 31 -150 59 -150 43 0 -4 15 -11 33 -14 19 -3 42
-13 53 -21 18 -13 17 -14 -18 -15 -20 0 -40 5 -43 10 -4 6 -11 7 -17 4 -6 -4
-23 -8 -37 -9 -46 -3 -50 -5 -56 -24 -5 -16 -11 -18 -35 -11 -24 7 -30 5 -35
-11 -4 -11 -12 -18 -18 -16 -7 2 -20 -7 -30 -20 -10 -13 -25 -23 -33 -23 -17
0 -18 -12 -2 -28 8 -8 9 -12 1 -12 -6 0 -13 5 -15 11 -7 21 -93 -33 -183 -113
-45 -40 -70 -52 -40 -18 10 11 14 20 8 20 -5 0 -18 -9 -28 -20 -16 -18 -16
-20 -1 -26 9 -3 16 -13 16 -21 0 -8 -5 -11 -11 -7 -18 11 -67 -58 -86 -123
-12 -43 -23 -63 -33 -62 -10 0 -11 2 -2 6 6 2 9 9 6 15 -4 6 0 14 7 19 11 6
11 11 1 21 -9 9 -12 9 -13 -2 0 -8 -6 1 -13 20 -8 22 -9 44 -4 59 11 32 3 39
-13 9 -16 -32 -15 -31 -39 -18 -18 10 -19 14 -8 27 11 14 10 15 -12 8 -23 -7
-24 -7 -10 11 14 19 13 19 -6 0 -13 -13 -15 -20 -6 -23 6 -3 12 -9 12 -15 0
-6 -7 -8 -15 -5 -8 4 -17 2 -20 -3 -4 -6 1 -10 9 -10 9 0 16 -7 16 -15 0 -8 5
-15 11 -15 6 0 9 9 6 20 -4 16 -2 18 11 10 52 -30 62 -50 41 -80 -8 -12 -9
-10 -4 8 6 21 4 23 -14 17 -17 -5 -20 -3 -14 11 5 13 3 15 -7 9 -7 -5 -26 -9
-42 -10 -33 -3 -50 -15 -30 -22 6 -3 9 -10 5 -16 -4 -7 -7 -21 -8 -32 0 -16
-6 -20 -29 -18 l-29 2 24 -16 c13 -9 26 -18 29 -21 6 -4 -30 -32 -43 -32 -4 0
-5 10 -2 21 7 21 7 21 -19 3 -14 -11 -26 -22 -26 -26 0 -13 -28 -9 -33 5 -4 8
-6 9 -6 0 -1 -6 6 -18 14 -27 8 -8 15 -17 15 -20 0 -3 -7 -3 -15 0 -9 4 -15 0
-15 -9 0 -8 5 -17 11 -19 14 -5 0 -38 -16 -38 -6 0 -17 -10 -23 -22 -6 -13
-11 -17 -11 -10 -1 7 10 24 24 37 14 15 19 25 11 25 -9 0 -12 10 -10 29 3 25
0 28 -16 24 -11 -3 -20 -10 -20 -15 0 -5 5 -6 11 -2 7 4 9 -2 7 -17 -2 -16 -9
-24 -21 -23 -9 1 -17 -2 -17 -7 0 -16 -25 -5 -33 14 -9 23 -1 37 21 37 12 0
13 -3 4 -12 -18 -18 -15 -23 13 -24 21 -2 24 1 14 12 -6 8 -8 25 -5 38 6 26
-1 56 -14 56 -4 0 -10 -9 -13 -20 -6 -22 8 -28 16 -7 4 9 6 9 6 0 1 -7 -11
-18 -26 -25 -22 -11 -28 -20 -26 -42 2 -22 -1 -25 -11 -16 -19 15 -39 9 -49
-14 -11 -27 0 -33 17 -10 8 10 17 16 21 12 4 -4 -3 -17 -15 -30 -15 -16 -24
-19 -27 -10 -3 6 -9 12 -15 12 -6 0 -8 -6 -5 -14 3 -8 1 -16 -5 -18 -6 -2 -3
-9 6 -17 14 -11 16 -11 16 2 0 10 6 14 14 11 12 -5 11 -9 -5 -25 -10 -10 -19
-24 -19 -30 0 -5 -4 -8 -9 -4 -5 3 -13 0 -17 -6 -3 -6 -1 -15 6 -19 9 -6 8
-14 -6 -36 -10 -16 -22 -32 -27 -35 -4 -3 -5 -14 -1 -25 4 -14 3 -16 -4 -5 -6
8 -17 11 -25 8 -12 -4 -14 -2 -10 10 4 11 2 14 -8 11 -8 -3 -14 -11 -14 -19 0
-8 -6 -19 -14 -25 -9 -7 -11 -16 -5 -25 5 -8 9 -17 9 -21 0 -17 15 -19 15 -2
0 11 -5 25 -12 32 -10 10 -5 12 22 9 26 -3 34 -9 35 -26 1 -12 -5 -26 -14 -31
-11 -7 -12 -9 -3 -10 26 0 5 -25 -23 -27 -15 -1 -32 -8 -36 -15 -11 -18 -2
-23 16 -8 12 10 19 10 28 1 9 -9 9 -14 -3 -21 -8 -5 -11 -10 -7 -10 5 0 1 -7
-7 -16 -9 -8 -16 -27 -16 -41 0 -26 0 -26 -20 -8 -20 18 -21 18 -14 0 5 -12 4
-16 -4 -11 -8 5 -10 2 -5 -9 5 -14 8 -14 15 -3 7 9 8 8 4 -6 -4 -11 -1 -23 6
-28 10 -6 8 -8 -4 -8 -10 0 -18 -4 -18 -10 0 -5 -10 -20 -21 -31 -17 -17 -19
-23 -8 -30 10 -6 3 -9 -19 -9 -19 0 -31 -4 -27 -10 3 -5 12 -7 20 -3 8 3 15 0
15 -5 0 -17 -21 -25 -32 -14 -12 12 -88 -58 -88 -80 1 -7 9 -3 20 11 11 13 20
18 20 12 0 -7 4 -10 10 -6 5 3 6 13 3 23 -3 9 -3 14 2 10 4 -4 15 -2 23 5 11
8 14 8 9 0 -4 -6 -4 -18 -1 -27 5 -13 9 -14 20 -5 9 8 14 8 14 1 0 -20 -23
-25 -35 -8 -12 15 -13 15 -19 0 -4 -10 -12 -14 -22 -10 -10 4 -14 1 -11 -6 2
-7 11 -12 20 -12 19 2 11 -22 -10 -30 -20 -8 -31 3 -14 13 11 7 11 10 0 17 -8
4 -14 3 -17 -5 -2 -7 -13 -2 -27 15 -18 21 -20 30 -12 39 7 7 17 11 23 8 6 -2
17 4 25 13 13 15 11 16 -11 10 -14 -4 -35 -18 -47 -32 -14 -15 -23 -19 -26
-11 -3 7 -6 4 -6 -6 -1 -10 -6 -15 -11 -12 -7 4 -9 -3 -5 -22 5 -22 4 -25 -5
-13 -9 12 -10 11 -5 -6 6 -22 -17 -40 -36 -28 -5 3 -9 0 -9 -5 0 -6 5 -11 10
-11 6 0 10 -5 10 -11 0 -5 -4 -7 -10 -4 -5 3 -10 -1 -10 -9 0 -9 6 -16 13 -16
8 0 7 -3 -3 -9 -8 -6 -17 -8 -21 -5 -4 2 -10 0 -14 -5 -3 -6 3 -8 13 -6 21 4
31 -2 52 -30 14 -19 14 -19 -5 -4 -26 21 -49 29 -62 21 -21 -13 -65 -135 -59
-163 3 -16 1 -31 -4 -34 -6 -3 -10 -1 -10 4 0 18 -17 12 -22 -7 -3 -12 2 -24
14 -31 27 -17 16 -26 -12 -11 -12 7 -20 8 -16 2 3 -5 -4 -22 -15 -36 l-21 -26
20 -38 c11 -20 25 -36 32 -34 6 1 9 -2 5 -8 -13 -21 -61 31 -56 63 1 4 -4 7
-10 7 -5 0 -9 -8 -7 -17 1 -10 -1 -24 -6 -31 -5 -8 -1 -21 10 -33 9 -10 12
-19 7 -19 -6 0 -13 7 -17 15 -8 22 -34 18 -41 -6 -4 -11 -9 -19 -11 -17 -2 2
36 83 84 178 87 174 142 294 142 310 0 12 85 175 110 210 11 15 20 32 20 37 0
6 9 18 20 28 11 10 20 22 20 28 0 5 14 28 32 51 36 47 55 67 44 49 -4 -7 -2
-13 4 -13 6 0 10 8 9 18 -4 21 19 64 30 57 5 -3 12 2 15 11 3 8 2 12 -4 9 -6
-3 -10 -2 -10 4 0 10 19 26 32 26 12 0 21 15 9 15 -8 0 -7 8 4 28 26 44 67 98
63 82 -3 -16 2 -20 28 -20 12 0 15 7 10 28 -3 15 -3 21 0 15 3 -7 10 -13 15
-13 14 0 11 20 -6 36 -12 12 -13 20 -4 36 8 15 13 17 19 8 5 -9 9 -9 14 -1 4
6 0 14 -8 17 -12 4 -13 11 -6 24 5 10 22 51 36 92 33 92 117 264 122 250 2 -6
-2 -20 -8 -31 -9 -17 -8 -20 5 -15 8 4 15 12 15 18 0 21 87 189 117 226 15 19
41 46 56 60 16 14 50 45 75 69 57 53 119 96 152 106 14 4 33 14 43 23 10 9 17
11 17 4 0 -8 7 -9 23 -2 12 5 85 25 162 44 77 19 151 39 165 44 31 11 56 4
144 -41z m4164 -125 c3 -22 5 -22 165 -22 89 0 419 5 732 10 314 5 585 7 603
4 32 -6 43 -28 18 -37 -7 -3 -157 -6 -332 -6 -296 -1 -458 -3 -1199 -16 -154
-3 -417 -7 -585 -10 -168 -3 -352 -8 -410 -10 -58 -3 -213 -8 -346 -11 -214
-4 -242 -3 -254 11 -41 49 -10 51 913 55 318 2 358 4 368 19 7 12 12 13 15 4
8 -18 25 -16 40 5 12 16 13 16 19 0 6 -16 21 -18 111 -18 l104 0 0 26 c0 33
33 30 38 -4z m1532 -70 c0 -13 -304 -21 -1079 -29 -473 -4 -682 -3 -678 4 4 6
65 11 154 13 142 2 848 12 1361 18 137 2 242 -1 242 -6z m-4499 -249 c19 -111
24 -219 13 -286 -6 -36 -8 -37 -25 -21 -11 10 -19 12 -19 6 0 -6 -7 -9 -15 -6
-22 9 -27 -32 -15 -121 10 -82 34 -303 44 -410 3 -33 5 -93 6 -134 l0 -73 59
-62 c33 -33 84 -91 115 -128 47 -57 56 -74 56 -106 0 -30 -6 -44 -22 -55 -31
-22 -1 -23 38 -2 27 14 30 14 46 -5 23 -28 29 -25 22 10 -5 21 -3 30 7 30 10
0 10 3 1 12 -9 9 -15 8 -25 -7 -10 -12 -16 -14 -21 -7 -4 7 3 16 18 22 14 5
37 14 51 20 16 6 23 15 19 25 -7 18 -35 20 -52 3 -8 -8 -12 -9 -12 -1 0 6 -9
9 -20 6 -11 -3 -20 0 -20 6 0 6 7 11 16 11 21 0 7 19 -22 30 -23 9 -24 10 -7
28 10 10 24 17 31 14 6 -2 12 1 12 7 0 6 7 11 15 11 21 0 19 -12 -7 -34 -19
-17 -20 -19 -4 -28 10 -5 19 -8 20 -6 1 1 7 14 14 28 6 14 11 18 10 10 0 -8 3
-26 9 -39 l10 -24 16 23 c9 13 14 27 11 31 -2 4 0 10 6 14 5 3 10 -2 10 -12 0
-15 2 -16 11 -3 8 12 9 10 7 -10 -2 -15 -9 -24 -17 -22 -12 3 -12 0 -2 -12 17
-21 27 -13 35 25 5 28 8 30 22 18 10 -8 12 -15 5 -17 -6 -2 -11 -8 -11 -13 0
-4 7 -6 15 -3 19 8 19 -7 0 -32 -14 -19 -14 -19 -15 1 0 28 -15 7 -29 -43 -12
-42 -8 -74 5 -36 15 48 24 59 19 22 -3 -20 -12 -50 -20 -65 -8 -15 -15 -34
-15 -40 0 -7 -5 -13 -10 -13 -6 0 -8 12 -4 28 l6 27 -22 -25 c-17 -21 -20 -22
-18 -6 2 10 -2 21 -7 23 -20 7 -44 -22 -48 -57 -3 -19 -11 -48 -20 -64 -8 -16
-13 -34 -11 -41 3 -7 -2 -15 -11 -19 -10 -4 -15 -12 -11 -21 3 -9 -4 -25 -15
-36 -11 -11 -17 -24 -14 -29 4 -6 1 -10 -4 -10 -6 0 -12 5 -12 10 -2 13 -6 29
-9 33 -10 13 -3 51 12 60 23 15 23 27 0 20 -10 -2 -24 2 -31 10 -10 13 -8 16
8 22 26 8 26 17 1 40 -12 10 -19 24 -16 31 4 10 -1 11 -20 3 -26 -9 -44 -5
-44 12 0 5 9 9 20 9 23 0 25 8 5 34 -7 10 -18 15 -24 11 -6 -3 -11 -1 -11 4 0
6 -7 11 -15 11 -9 0 -18 7 -21 15 -4 9 -15 20 -26 26 -22 12 -19 0 9 -33 12
-13 12 -21 3 -38 -14 -27 2 -50 36 -50 29 0 38 -14 20 -30 -12 -9 -23 -4 -55
27 -36 33 -58 75 -31 58 6 -3 10 -1 10 5 0 6 5 8 10 5 22 -13 8 15 -16 34 -22
17 -24 23 -14 36 7 8 16 12 21 9 17 -10 9 3 -13 22 -12 10 -18 14 -15 8 4 -7
1 -17 -7 -23 -11 -9 -17 -8 -29 4 -10 9 -18 11 -22 5 -4 -7 -13 -7 -28 1 -19
9 -19 8 3 -10 13 -10 28 -17 33 -14 5 3 11 -4 14 -16 3 -12 10 -21 16 -21 6 0
7 -3 4 -7 -4 -3 -2 -12 4 -20 6 -7 8 -13 4 -13 -4 0 -16 11 -27 25 -11 14 -24
25 -30 25 -5 0 -30 20 -55 44 -42 42 -43 45 -25 55 24 13 26 61 3 78 -14 11
-12 12 11 13 25 0 27 -3 24 -30 -2 -17 3 -35 10 -41 21 -17 17 -31 -6 -19 -17
9 -20 8 -20 -10 0 -23 29 -27 48 -8 7 7 12 8 12 2 0 -6 12 -16 26 -22 14 -7
23 -8 20 -3 -4 5 0 11 6 14 20 7 2 20 -28 21 -35 1 -41 19 -12 34 22 12 22 12
1 7 -25 -7 -42 13 -22 26 11 6 10 9 -3 14 -9 4 -19 13 -22 20 -3 9 0 12 10 8
10 -4 17 2 21 16 3 11 12 21 19 21 8 0 14 6 14 14 0 8 6 17 13 19 7 3 5 6 -5
6 -20 1 -25 27 -7 33 8 3 6 15 -4 41 -11 26 -20 35 -31 31 -9 -3 -16 -10 -16
-15 0 -5 -7 -9 -16 -9 -11 0 -15 -6 -11 -20 5 -21 -7 -28 -18 -10 -5 8 -11 7
-21 -1 -12 -10 -12 -14 -2 -22 9 -6 8 -7 -5 -3 -11 3 -22 -2 -29 -14 -7 -11
-22 -20 -32 -20 -16 0 -17 -3 -8 -12 16 -16 15 -28 -2 -28 -8 0 -21 -6 -29
-14 -12 -13 -17 -13 -36 0 -25 18 -28 36 -3 27 12 -4 9 3 -10 23 -18 20 -24
34 -19 43 12 19 32 5 24 -16 -6 -15 -5 -16 9 -3 8 8 13 21 11 28 -4 9 3 11 27
7 29 -5 32 -4 20 10 -7 8 -19 15 -26 15 -8 0 -14 5 -14 11 0 6 6 9 14 6 14 -6
56 23 56 38 0 5 -7 17 -17 27 -9 11 -11 18 -5 18 7 0 12 -4 12 -10 0 -5 5 -10
11 -10 6 0 9 6 6 14 -4 11 2 12 29 6 19 -4 34 -5 34 -1 0 17 -53 82 -64 78 -9
-4 -12 10 -10 52 3 78 -9 89 -93 85 -48 -2 -72 -8 -88 -22 -17 -15 -26 -17
-34 -9 -9 9 -14 9 -20 -1 -6 -10 -10 -10 -21 3 -10 12 -10 15 0 15 9 0 7 7 -6
21 -14 15 -15 20 -4 17 8 -2 19 -7 23 -13 6 -7 10 -6 13 1 3 7 14 10 24 7 11
-3 20 -1 20 5 0 5 14 9 31 8 16 -1 33 2 36 6 2 5 18 6 33 3 28 -6 28 -6 20 31
-6 24 -5 43 3 56 10 16 9 22 -7 34 -11 7 -17 17 -13 20 4 4 13 1 22 -6 18 -15
19 -1 1 22 -10 14 -15 15 -26 5 -10 -10 -12 -9 -7 5 3 10 2 20 -4 23 -5 4 -7
11 -3 16 4 6 11 6 19 -1 19 -16 31 -6 39 32 3 18 15 51 26 73 10 22 26 64 35
93 l17 52 44 0 c77 0 88 58 29 147 l-25 35 32 42 c47 61 71 87 76 81 3 -2 13
-53 23 -112z m3405 -104 c3 -5 3 -22 -1 -38 -9 -41 -53 -59 -167 -67 l-95 -7
-9 -55 -9 -56 -65 -12 c-36 -6 -158 -36 -272 -65 -114 -29 -210 -50 -214 -47
-3 4 2 22 13 40 17 28 25 33 55 32 34 -1 37 1 43 35 12 69 28 111 44 115 16 5
125 13 276 21 153 8 320 26 353 37 21 8 32 19 32 32 0 19 -1 19 -13 2 -13 -17
-16 -14 -45 38 -18 30 -32 60 -32 66 0 10 95 -54 106 -71z m721 -132 c9 -14
-18 -66 -38 -72 -13 -4 -19 -16 -19 -36 0 -22 -6 -32 -26 -39 -14 -6 -26 -10
-27 -10 -2 0 -2 18 -2 41 0 45 -29 79 -67 79 -11 0 -36 8 -56 18 l-37 17 40 6
c60 9 225 6 232 -4z m163 -43 c16 -42 12 -82 -9 -94 -24 -12 -121 -13 -140 -1
-20 13 -5 45 39 85 50 45 95 49 110 10z m-896 -192 c18 -85 21 -91 45 -94 15
-2 30 -13 37 -27 l12 -24 4 29 c3 27 7 29 48 32 29 2 48 10 57 22 12 17 27 19
106 20 86 0 151 6 447 44 137 17 353 36 395 35 66 -1 -12 -18 -160 -34 -359
-40 -658 -74 -660 -77 -3 -3 13 -109 17 -113 2 -1 77 6 168 16 222 24 600 59
642 59 l34 0 12 -85 c6 -47 9 -92 6 -100 -4 -8 -1 -15 5 -15 6 0 11 -4 11 -10
0 -15 -19 -12 -86 10 -82 26 -104 19 -104 -34 l0 -41 -66 -21 c-62 -20 -66
-20 -75 -3 -5 10 -9 47 -9 83 0 73 0 72 -110 133 l-55 30 -155 -18 c-277 -32
-250 -31 -250 -4 0 14 -4 25 -10 25 -5 0 -7 7 -4 15 5 12 -4 15 -50 15 -48 0
-56 -3 -56 -19 0 -22 23 -33 54 -25 25 6 52 -18 40 -37 -5 -8 -32 -10 -90 -6
-47 2 -87 1 -90 -4 -10 -17 -34 -9 -34 11 0 18 -5 20 -32 16 -62 -10 -133 -11
-138 -1 -3 5 8 9 24 10 16 0 31 6 34 14 4 11 -2 13 -26 8 -28 -6 -31 -4 -34
21 -2 19 -10 28 -24 30 -15 2 -21 10 -22 30 0 25 -8 117 -11 135 0 4 -6 7 -12
7 -6 0 -8 -7 -5 -17 4 -9 1 -20 -6 -25 -19 -12 -28 -10 -28 7 0 8 -7 15 -15
15 -21 0 -20 -66 4 -159 19 -74 31 -123 32 -138 1 -5 4 -15 9 -23 4 -8 10 -26
13 -40 5 -21 2 -25 -18 -26 -16 -1 -22 2 -18 12 3 8 1 14 -5 14 -5 0 -12 9
-15 20 -3 11 -10 20 -16 20 -6 0 -8 -7 -5 -15 9 -22 -13 -18 -33 5 -12 13 -20
16 -29 9 -7 -5 -24 -8 -38 -5 -22 4 -26 1 -26 -20 0 -15 -6 -24 -15 -24 -8 0
-15 9 -15 20 0 10 -9 24 -19 30 -28 15 -33 13 -26 -10 6 -20 -17 -70 -33 -70
-4 0 -18 16 -31 35 -13 19 -27 32 -32 29 -8 -5 -13 10 -10 29 1 5 -3 6 -8 3
-5 -4 -12 0 -14 6 -10 24 -7 -31 3 -56 5 -14 6 -26 2 -26 -7 0 -74 261 -68
267 1 2 90 28 196 58 106 30 196 59 200 65 3 6 29 13 57 16 27 3 70 11 94 19
24 7 49 12 54 11 6 -1 19 -44 29 -94z m-1033 -27 c22 -12 29 -23 29 -44 0 -23
6 -31 38 -43 40 -16 52 -40 52 -104 0 -20 -4 -23 -22 -19 -19 4 -525 65 -542
65 -16 0 -2 -25 32 -58 44 -44 137 -112 153 -112 5 0 8 -4 5 -8 -3 -5 8 -20
24 -35 18 -18 30 -23 32 -15 3 7 7 2 10 -10 4 -14 2 -20 -4 -15 -7 3 -8 1 -4
-5 4 -7 13 -12 20 -12 15 0 66 -69 66 -90 0 -7 3 -10 6 -7 11 10 46 -64 50
-103 3 -31 -1 -39 -26 -54 -17 -9 -30 -15 -30 -12 0 3 -9 -3 -20 -14 -19 -19
-40 -24 -89 -20 -14 1 -21 -2 -17 -9 5 -7 -7 -11 -35 -11 -26 0 -50 -7 -61
-17 -17 -16 -17 -17 19 -39 49 -30 68 -31 26 -1 -32 22 -42 37 -24 37 5 0 12
-7 15 -16 5 -13 15 -15 47 -11 23 3 47 11 53 18 6 7 6 9 1 6 -17 -9 -42 10
-29 23 7 7 20 7 41 -1 22 -7 42 -7 70 0 21 6 103 11 183 11 l145 0 33 -92 c18
-50 29 -95 24 -100 -9 -9 -87 -24 -190 -36 l-74 -9 -24 38 c-24 39 -32 43 -99
55 -22 4 -52 15 -67 25 -50 36 -50 19 1 -27 28 -25 51 -50 51 -55 0 -5 -14 -9
-32 -9 -21 0 -61 19 -120 55 -101 63 -111 64 -244 35 -148 -32 -153 -40 -24
-33 107 5 119 4 175 -19 33 -14 83 -33 110 -42 51 -17 107 -45 91 -46 -5 0 -3
-6 3 -14 7 -8 19 -12 29 -9 23 6 117 -36 105 -48 -5 -5 -23 -5 -43 2 -19 5
-51 12 -70 15 -19 2 -38 11 -43 19 -4 9 -12 13 -16 11 -4 -3 -25 0 -47 6 -21
6 -43 12 -49 12 -5 1 -19 6 -30 12 -11 6 -33 15 -50 19 -37 10 -35 9 -67 23
-18 7 -37 8 -55 2 -15 -5 -53 -11 -83 -14 -30 -2 -91 -15 -135 -28 -51 -15
-89 -21 -105 -17 -33 9 -85 11 -76 2 3 -4 -8 -22 -26 -40 -19 -20 -26 -31 -15
-28 9 4 17 3 17 -3 0 -5 -17 -13 -37 -17 -21 -4 -40 -10 -43 -13 -3 -4 -27
-19 -55 -34 -35 -19 -49 -32 -47 -45 5 -26 33 -45 58 -39 15 4 20 1 19 -12 0
-10 -4 -23 -9 -30 -12 -20 2 -31 52 -37 80 -11 118 -24 139 -47 20 -22 20 -25
5 -60 -15 -33 -20 -37 -54 -36 -29 0 -38 4 -38 18 0 18 24 43 50 53 8 3 -8 5
-36 3 -28 -2 -56 -6 -62 -10 -7 -4 -12 -2 -12 3 0 6 -7 11 -16 11 -8 0 -13 -4
-10 -8 3 -5 -1 -9 -10 -9 -10 0 -12 7 -8 21 6 20 6 20 -13 4 -21 -19 -28 -17
-110 35 -24 15 -43 23 -43 17 0 -5 -11 -12 -24 -16 -16 -4 -23 -11 -19 -20 4
-11 -6 -10 -42 6 -26 11 -55 20 -66 20 -11 0 -28 8 -39 18 -17 15 -18 23 -8
62 6 25 10 87 9 138 -2 102 -5 97 71 107 26 3 54 13 62 21 17 16 36 19 36 4 0
-5 6 -8 13 -6 6 3 24 7 40 10 35 8 34 17 -2 39 -34 20 -72 17 -150 -12 -30
-12 -56 -20 -57 -18 -4 4 -7 112 -3 115 16 13 178 -38 204 -65 11 -10 28 -11
82 -4 37 6 89 10 115 10 31 -1 68 9 105 26 l58 27 -99 28 c-100 30 -132 45
-105 54 137 42 114 45 223 -26 57 -37 65 -39 116 -34 30 3 93 17 140 32 140
44 128 35 119 96 -14 94 -39 391 -39 464 0 77 -9 94 -50 94 -14 0 -33 6 -42
13 -19 14 -30 111 -15 126 7 7 100 9 280 6 212 -4 275 -9 298 -20z m-5130 -90
c6 4 16 1 21 -6 7 -11 11 -11 15 -1 7 17 23 5 23 -18 0 -10 11 -31 25 -46 14
-15 28 -39 31 -53 3 -14 10 -36 15 -49 12 -31 11 -36 -5 -23 -10 8 -16 9 -21
1 -3 -5 -21 -10 -38 -10 -36 -1 -108 -16 -250 -54 -70 -19 -111 -37 -143 -61
-26 -20 -57 -35 -72 -35 -15 0 -41 -4 -59 -9 -29 -8 -31 -7 -37 21 -10 49 -7
118 6 141 7 13 11 53 9 97 l-2 75 73 1 c83 1 298 22 343 33 17 4 35 4 42 -1 7
-6 17 -7 24 -3z m7114 -331 c23 -9 -26 -44 -150 -106 -115 -58 -278 -148 -285
-158 -3 -4 -27 -20 -55 -35 -27 -16 -53 -34 -57 -40 -5 -7 -8 -6 -8 2 0 22
171 160 305 246 79 51 132 75 190 87 22 4 41 8 42 9 1 1 9 -2 18 -5z m-2971
-109 c7 -22 15 -35 19 -29 11 19 87 27 106 11 9 -8 23 -17 31 -20 11 -4 10 -6
-4 -6 -15 -1 -17 -6 -12 -28 4 -16 7 -35 7 -44 0 -13 9 -16 47 -11 33 3 44 1
37 -6 -5 -6 -46 -13 -90 -16 -98 -8 -128 -13 -181 -32 -45 -17 -135 -15 -141
2 -2 6 10 17 27 24 47 20 31 35 -43 38 -62 3 -66 2 -69 -20 -3 -21 -8 -23 -65
-23 -51 0 -63 3 -63 15 0 9 -5 21 -12 28 -6 6 -13 24 -14 39 -2 15 -6 43 -10
61 -5 23 -3 32 7 33 24 1 131 10 224 18 50 5 112 8 139 7 49 -1 49 -2 60 -41z
m3256 -228 c0 -13 -12 -35 -27 -48 -32 -30 -99 -69 -116 -69 -20 0 -137 -93
-220 -174 -67 -66 -97 -88 -97 -72 0 2 -2 11 -6 19 -5 15 133 147 159 151 16
2 80 52 133 104 33 31 152 112 166 112 4 0 8 -10 8 -23z m-2638 -305 c5 -5
-11 -12 -38 -16 -86 -11 -204 -48 -204 -63 0 -11 -8 -13 -31 -8 -28 6 -30 5
-24 -14 7 -22 -9 -30 -20 -11 -4 6 -14 9 -23 6 -10 -2 -33 -7 -52 -11 l-35 -7
30 26 c48 41 168 96 211 97 22 0 48 5 59 10 23 10 114 4 127 -9z m3939 -312
c10 -6 19 -15 19 -20 0 -19 -220 -74 -340 -85 -30 -3 -68 -9 -85 -14 -16 -5
-61 -15 -100 -21 -112 -19 -153 -31 -171 -51 -10 -11 -14 -22 -11 -25 10 -10
-21 -62 -44 -75 -28 -15 -43 1 -41 43 3 70 3 94 -3 128 -5 29 -1 41 22 68 l28
34 78 -11 c101 -14 257 -14 333 0 74 14 230 36 267 38 16 0 37 -4 48 -9z
m-4181 -606 c0 -17 -124 -79 -180 -88 -38 -7 -49 -2 -67 31 -12 21 -10 23 25
33 20 5 60 16 87 24 70 20 135 21 135 0z"/>
<path d="M9107 6133 c-11 -10 -8 -152 3 -174 13 -23 36 -25 48 -3 6 11 12 13
16 6 4 -6 13 -9 20 -6 8 3 17 1 21 -5 7 -12 53 -5 70 10 5 5 26 9 47 9 21 0
38 4 38 8 0 5 10 8 23 8 13 -1 22 5 22 14 0 12 -11 14 -48 13 -43 -2 -56 2
-105 37 -30 22 -63 40 -72 40 -10 0 -25 11 -34 25 -16 24 -36 32 -49 18z"/>
</g>
</svg>
