<?xml version="1.0" standalone="no"?>
<!DOCTYPE svg PUBLIC "-//W3C//DTD SVG 20010904//EN"
 "http://www.w3.org/TR/2001/REC-SVG-20010904/DTD/svg10.dtd">
<svg version="1.0" xmlns="http://www.w3.org/2000/svg"
 width="202.000000pt" height="189.000000pt" viewBox="0 0 202.000000 189.000000"
 preserveAspectRatio="xMidYMid meet">
<metadata>
Created by potrace 1.16, written by Peter Selinger 2001-2019
</metadata>
<g transform="translate(0.000000,189.000000) scale(0.100000,-0.100000)"
fill="#000000" stroke="none">
<path d="M680 1871 c-97 -9 -104 -15 -110 -106 -3 -42 -3 -78 -1 -81 2 -2 130
-4 283 -4 l278 0 0 75 c0 101 -10 110 -132 119 -100 7 -217 6 -318 -3z"/>
<path d="M146 1758 c-28 -25 -40 -44 -46 -78 -5 -25 -9 -380 -10 -790 0 -725
1 -746 20 -778 l20 -32 723 0 724 0 11 25 c16 34 17 32 -20 39 -25 5 -37 1
-56 -16 l-24 -23 -639 1 c-596 2 -641 3 -660 19 -19 18 -19 38 -19 785 l0 767
23 21 c22 20 33 22 160 22 l137 0 0 35 0 35 -153 0 -154 0 -37 -32z"/>
<path d="M1210 1755 l0 -35 138 0 c198 0 182 32 182 -359 l0 -312 38 3 37 3 3
300 c2 193 -1 313 -8 337 -6 22 -25 49 -48 67 l-37 31 -152 0 -153 0 0 -35z"/>
<path d="M287 1414 c-4 -4 -7 -65 -7 -136 l0 -128 135 0 136 0 -3 133 -3 132
-126 3 c-69 1 -128 -1 -132 -4z m223 -129 l0 -95 -95 0 -95 0 0 95 0 95 95 0
95 0 0 -95z"/>
<path d="M680 1285 l0 -35 190 0 190 0 0 35 0 35 -190 0 -190 0 0 -35z"/>
<path d="M280 900 l0 -130 135 0 135 0 0 130 0 130 -135 0 -135 0 0 -130z
m230 5 l0 -95 -95 0 -95 0 0 95 0 95 95 0 95 0 0 -95z"/>
<path d="M1505 963 c-150 -54 -239 -154 -266 -299 -30 -165 55 -330 209 -406
61 -30 74 -33 162 -33 82 0 103 4 152 27 163 76 250 243 219 417 -14 79 -63
166 -122 215 -96 81 -251 116 -354 79z m382 -205 c48 -45 37 -66 -130 -234
-144 -145 -155 -154 -191 -154 -34 0 -46 8 -127 89 -78 79 -89 94 -89 124 0
26 7 41 26 56 43 34 70 27 132 -33 l57 -55 117 115 c100 98 121 114 149 114
20 0 42 -9 56 -22z"/>
<path d="M680 900 l0 -40 188 2 187 3 3 38 3 37 -190 0 -191 0 0 -40z"/>
<path d="M280 520 l0 -130 135 0 135 0 0 130 0 130 -135 0 -135 0 0 -130z
m228 3 l3 -93 -96 0 -95 0 0 95 0 96 93 -3 92 -3 3 -92z"/>
<path d="M680 525 l0 -35 190 0 190 0 0 35 0 35 -190 0 -190 0 0 -35z"/>
</g>
</svg>
