<?xml version="1.0" standalone="no"?>
<!DOCTYPE svg PUBLIC "-//W3C//DTD SVG 20010904//EN"
 "http://www.w3.org/TR/2001/REC-SVG-20010904/DTD/svg10.dtd">
<svg version="1.0" xmlns="http://www.w3.org/2000/svg"
 width="2134.000000pt" height="2134.000000pt" viewBox="0 0 2134.000000 2134.000000"
 preserveAspectRatio="xMidYMid meet">
<metadata>
Created by potrace 1.16, written by Peter Selinger 2001-2019
</metadata>
<g transform="translate(0.000000,2134.000000) scale(0.100000,-0.100000)"
fill="#000000" stroke="none">
<path d="M11590 16303 c-30 -15 -84 -56 -120 -92 -59 -59 -765 -953 -3868
-4896 -520 -660 -953 -1209 -963 -1219 -17 -19 -19 -19 -45 -1 -15 10 -423
335 -906 722 -483 387 -904 720 -935 740 -124 79 -213 91 -311 42 -108 -54
204 408 -2675 -3954 -769 -1165 -1414 -2149 -1432 -2185 -64 -129 -70 -236
-19 -331 32 -59 79 -99 159 -135 111 -51 232 -16 362 104 34 31 886 930 1894
1997 2172 2298 2398 2537 2409 2530 4 -3 245 -307 536 -677 291 -370 563 -708
605 -750 168 -170 300 -170 482 1 39 36 761 820 1606 1741 844 921 1623 1771
1731 1888 139 151 208 236 242 293 25 44 48 81 50 82 2 1 18 -10 37 -24 l33
-26 -11 -229 c-77 -1620 -78 -1662 -31 -1753 48 -95 145 -154 263 -159 71 -4
84 -1 140 26 38 19 188 132 382 288 615 494 2060 1650 2072 1657 17 11 64 -81
308 -598 288 -610 513 -1069 561 -1140 49 -74 133 -165 192 -209 76 -56 435
-246 1357 -721 275 -142 545 -282 600 -312 189 -104 -21 87 2445 -2223 696
-651 1392 -1304 1548 -1450 292 -273 364 -332 435 -351 133 -36 290 42 353
176 47 100 26 235 -54 343 -20 28 -946 1123 -2057 2434 -1111 1310 -3130 3695
-4488 5298 -1357 1603 -2497 2943 -2533 2977 -127 121 -242 152 -354 96z"/>
</g>
</svg>
