<?xml version="1.0" standalone="no"?>
<!DOCTYPE svg PUBLIC "-//W3C//DTD SVG 20010904//EN"
 "http://www.w3.org/TR/2001/REC-SVG-20010904/DTD/svg10.dtd">
<svg version="1.0" xmlns="http://www.w3.org/2000/svg"
 width="720.000000pt" height="720.000000pt" viewBox="0 0 720.000000 720.000000"
 preserveAspectRatio="xMidYMid meet">
<metadata>
Created by potrace 1.16, written by Peter Selinger 2001-2019
</metadata>
<g transform="translate(0.000000,720.000000) scale(0.100000,-0.100000)"
fill="#000000" stroke="none">
<path d="M2800 6803 c-34 -6 -174 -59 -230 -87 -54 -27 -156 -154 -248 -310
-79 -133 -101 -178 -157 -321 -135 -346 -182 -509 -192 -664 -3 -58 -10 -109
-16 -112 -5 -4 -10 -25 -11 -47 0 -22 -5 -38 -10 -35 -5 4 -6 -9 -2 -29 7 -36
-31 -149 -52 -156 -6 -2 -9 -9 -6 -17 3 -7 -6 -36 -21 -65 -14 -29 -25 -54
-22 -56 7 -8 57 56 57 73 1 20 29 74 30 58 0 -5 9 8 20 30 l19 40 -6 -50 c-3
-27 -12 -62 -19 -77 -17 -32 -17 -38 -4 -38 6 0 17 15 25 33 8 17 14 27 15 20
0 -6 -10 -33 -22 -60 -12 -26 -20 -53 -19 -60 1 -6 -6 -10 -16 -8 -36 5 -83
-31 -83 -65 0 -13 27 -6 47 12 10 9 30 19 45 23 29 7 64 39 37 33 -17 -4 -13
26 8 59 20 30 25 25 30 -34 5 -61 22 -80 21 -24 0 23 2 45 6 48 3 4 6 -7 6
-22 0 -27 1 -27 14 -10 12 17 14 15 20 -18 4 -21 11 -37 16 -37 6 0 9 3 9 8
-1 4 4 22 11 41 16 42 19 35 45 -93 l17 -89 -42 -39 c-29 -28 -40 -45 -37 -59
4 -14 -3 -23 -21 -33 -61 -32 -152 -142 -152 -183 0 -2 15 12 34 32 19 19 38
36 43 36 34 6 83 5 83 -2 0 -9 -63 -51 -93 -62 -26 -10 -10 -30 18 -23 34 9
43 -11 41 -92 -1 -73 8 -101 21 -65 3 10 11 24 17 32 18 23 25 -48 8 -90 -13
-36 -12 -112 1 -126 4 -3 7 -26 7 -50 0 -23 5 -43 11 -43 5 0 7 -4 4 -10 -3
-5 0 -7 7 -5 10 4 19 -14 33 -60 10 -36 21 -65 25 -65 4 0 15 -26 25 -57 52
-176 77 -243 112 -308 9 -16 20 -37 24 -45 3 -8 12 -27 20 -42 7 -16 15 -26
17 -23 3 3 -12 42 -34 87 -33 71 -39 93 -39 153 0 39 5 83 11 99 11 29 12 29
19 6 4 -13 10 -55 14 -94 4 -44 11 -70 18 -69 12 3 53 -77 53 -103 0 -9 9 -26
20 -38 11 -11 34 -43 52 -70 42 -64 68 -74 38 -16 -26 52 -54 140 -46 148 3 3
6 -1 6 -9 0 -13 85 -168 99 -179 3 -3 15 -22 26 -44 10 -21 21 -33 23 -27 2 6
-4 25 -12 42 -9 18 -16 38 -16 46 0 7 -6 13 -14 13 -14 0 -30 51 -40 130 -5
42 -4 41 12 -15 l17 -60 5 59 c5 55 6 57 21 40 9 -11 20 -28 24 -39 7 -17 9
-13 17 23 5 23 13 42 19 42 5 0 9 14 9 32 0 41 9 31 24 -29 12 -44 13 -35 9
97 -2 80 -8 167 -14 193 -9 50 -11 122 -2 100 11 -28 25 -12 19 21 -4 19 -2
55 5 79 9 38 15 46 40 51 26 5 28 8 17 25 -15 25 8 129 34 152 10 9 18 21 18
27 0 6 10 12 23 15 21 3 21 4 -5 15 -29 12 -36 26 -18 37 13 8 70 -35 164
-127 44 -42 84 -74 90 -71 6 4 5 8 -3 11 -19 6 -80 76 -74 85 2 4 18 -6 35
-22 17 -17 35 -28 40 -25 5 3 -29 44 -76 90 -50 49 -86 93 -86 104 0 11 -7 20
-15 20 -19 0 -71 57 -95 106 -25 47 -25 56 -2 52 12 -2 18 5 20 22 2 18 0 21
-6 11 -13 -18 -32 -5 -32 21 0 16 4 19 24 14 21 -5 25 -2 28 19 2 14 7 25 12
25 5 -1 14 9 20 22 9 17 22 24 56 28 35 4 46 9 48 25 5 27 22 44 22 22 0 -9 5
-17 11 -17 7 0 8 7 4 18 -15 34 -11 57 9 57 14 0 29 -17 48 -55 43 -83 48 -89
126 -168 73 -75 80 -88 63 -120 -6 -9 -17 -40 -26 -68 -9 -28 -31 -69 -50 -91
l-34 -40 33 1 c27 1 48 14 101 64 62 57 85 68 85 40 0 -7 -10 -23 -22 -36 -22
-24 -22 -25 -3 -20 11 3 28 9 38 13 11 5 17 3 17 -7 0 -8 11 -24 24 -36 14
-11 33 -44 43 -71 10 -28 23 -51 30 -51 7 0 13 -8 13 -19 0 -10 10 -31 22 -47
13 -15 21 -37 20 -49 -2 -12 4 -34 12 -50 13 -24 16 -26 16 -10 1 18 3 18 18
-5 16 -24 79 -90 86 -90 8 0 -2 58 -14 80 -17 32 -30 90 -20 90 5 0 11 -6 14
-12 2 -7 4 6 3 29 -1 24 -5 43 -8 43 -11 0 -20 50 -12 63 11 17 12 67 2 67 -4
0 -12 -8 -18 -17 -9 -17 -10 -17 -16 0 -4 9 -5 29 -2 42 2 14 0 28 -4 31 -14
9 -10 61 6 74 11 9 23 5 59 -26 25 -21 43 -41 40 -46 -3 -4 1 -5 9 -2 10 3 18
-4 25 -23 10 -28 10 -28 11 -3 1 26 -49 86 -95 117 -13 8 -24 22 -24 29 0 8
-7 14 -15 14 -19 0 -19 -1 5 46 15 31 19 34 20 17 0 -13 4 -23 9 -23 10 0 6
112 -6 180 -4 19 -7 49 -8 65 -2 17 -9 75 -17 130 -9 55 -21 147 -28 205 -22
193 -39 315 -49 348 -6 18 -7 40 -4 48 8 21 -17 217 -29 229 -7 7 -9 3 -5 -12
3 -13 2 -25 -3 -28 -12 -7 -19 58 -8 72 7 8 4 39 -7 90 -9 43 -19 88 -21 101
-4 18 -9 22 -24 17 -24 -8 -25 3 -4 34 37 52 -18 372 -91 527 -31 66 -82 124
-108 124 -27 0 -137 54 -137 67 0 24 -41 97 -71 125 -39 38 -168 73 -229 61z
m238 -310 c97 -50 106 -59 189 -183 20 -30 42 -61 50 -68 15 -15 36 -84 89
-284 23 -86 44 -148 51 -148 6 0 15 -21 19 -47 3 -27 10 -53 15 -59 8 -10 -12
-161 -30 -218 -5 -17 -12 -53 -16 -80 -13 -98 -146 -184 -268 -173 -41 4 -66
12 -82 27 -23 22 -21 22 -136 4 -36 -6 -65 13 -57 37 4 12 106 54 163 68 28 6
30 9 28 56 0 28 -1 53 -2 56 -2 11 -59 31 -70 24 -17 -10 -111 -23 -111 -15 0
5 7 11 16 14 24 9 186 25 217 21 33 -4 88 15 84 30 -2 5 -17 11 -33 13 -16 2
-55 10 -86 18 -77 19 -176 16 -207 -8 -23 -18 -51 -24 -51 -12 0 4 9 22 21 40
22 37 43 43 57 18 12 -21 56 -1 71 32 8 19 18 24 45 24 39 0 50 11 41 39 -8
25 -38 32 -68 16 -23 -12 -26 -11 -30 7 -5 18 -11 20 -54 13 -27 -4 -58 -16
-70 -28 -29 -26 -32 -2 -3 28 21 23 35 130 35 285 l0 85 -40 22 c-22 12 -58
32 -79 44 -21 11 -35 24 -30 27 11 8 12 72 1 89 -11 18 9 85 33 111 11 11 20
26 20 31 0 6 15 14 33 19 18 4 36 17 42 30 10 22 48 39 90 41 11 1 62 -20 113
-46z m-310 -683 c15 0 15 -56 -1 -125 -11 -44 -15 -50 -41 -53 -28 -4 -76 29
-76 52 0 6 -7 24 -15 40 -14 26 -14 31 2 48 24 27 73 48 98 43 11 -3 26 -5 33
-5z"/>
<path d="M3070 6220 c-45 -9 -107 -35 -125 -54 -18 -18 -19 -31 -3 -59 12 -23
14 -27 20 -63 2 -11 9 -27 16 -35 7 -8 22 -29 33 -47 31 -53 107 -76 164 -50
34 15 32 34 -7 42 -29 6 -30 7 -15 24 10 10 17 24 17 30 0 7 7 12 15 12 8 0
15 -7 15 -15 0 -17 18 -19 40 -5 13 8 10 14 -14 35 -16 14 -39 25 -51 25 -13
0 -37 3 -54 6 -30 6 -31 8 -15 25 16 18 16 19 -4 19 -25 0 -27 8 -10 45 12 26
54 55 80 55 7 0 26 -7 42 -15 38 -20 44 -13 9 10 -30 20 -97 26 -153 15z"/>
<path d="M2510 2165 c-7 -8 -27 -15 -45 -15 -40 0 -312 -88 -381 -123 -38 -19
-55 -35 -65 -59 l-12 -33 -6 39 c-9 57 -38 64 -133 32 -188 -63 -297 -111
-312 -134 -2 -4 46 -5 108 -4 105 4 116 2 164 -22 53 -27 95 -62 100 -84 1 -8
-2 -11 -8 -7 -6 4 -10 -14 -10 -49 0 -31 -1 -59 -2 -63 -1 -5 -8 -44 -15 -88
-7 -44 -17 -107 -23 -141 -5 -33 -11 -204 -12 -380 -3 -295 -1 -326 18 -414
12 -52 31 -115 42 -140 88 -196 86 -190 86 -263 1 -40 -3 -85 -7 -102 l-9 -30
-14 28 c-8 15 -19 28 -24 29 -29 4 -34 0 -45 -32 -7 -19 -18 -34 -24 -32 -8 2
-11 -10 -9 -35 l3 -38 1048 -3 c576 -1 1047 1 1048 5 4 64 9 97 16 102 17 13
22 184 5 204 -8 9 -10 30 -6 58 4 28 1 57 -8 78 l-14 35 -19 -40 c-12 -26 -19
-64 -21 -114 -3 -140 -3 -138 -23 -145 -10 -3 -30 -1 -43 5 -22 10 -24 16 -20
68 2 31 10 71 18 90 13 31 12 36 -5 58 -19 24 -18 25 9 119 15 52 47 129 71
171 41 72 45 75 75 72 25 -3 31 0 26 12 -2 8 -11 20 -19 26 -12 10 -12 12 0
17 8 3 19 26 26 51 6 24 15 48 21 51 5 3 10 17 10 31 0 14 7 39 16 55 13 25
15 79 15 343 0 172 -3 319 -6 328 -10 26 23 41 101 46 84 5 140 -8 190 -44
l31 -23 11 37 c6 20 10 38 7 40 -2 2 -39 8 -82 14 -92 12 -282 4 -313 -12 -21
-11 -22 -10 -17 29 5 45 0 56 -18 41 -9 -8 -14 -6 -19 6 -8 21 2 37 20 30 8
-3 24 9 39 32 31 45 31 56 3 49 -12 -4 -28 -1 -35 5 -11 9 -15 7 -20 -10 -3
-12 -9 -22 -12 -22 -21 0 -111 160 -111 196 0 23 -33 16 -111 -21 -81 -38
-174 -61 -211 -52 -14 4 -37 17 -53 31 -31 27 -65 36 -136 36 -63 0 -199 19
-221 31 -28 15 -115 21 -333 22 -169 2 -205 5 -234 20 -41 21 -45 21 -61 2z"/>
</g>
</svg>
