<?xml version="1.0" standalone="no"?>
<!DOCTYPE svg PUBLIC "-//W3C//DTD SVG 20010904//EN"
 "http://www.w3.org/TR/2001/REC-SVG-20010904/DTD/svg10.dtd">
<svg version="1.0" xmlns="http://www.w3.org/2000/svg"
 width="196.000000pt" height="184.000000pt" viewBox="0 0 196.000000 184.000000"
 preserveAspectRatio="xMidYMid meet">
<metadata>
Created by potrace 1.16, written by Peter Selinger 2001-2019
</metadata>
<g transform="translate(0.000000,184.000000) scale(0.100000,-0.100000)"
fill="#000000" stroke="none">
<path d="M598 1578 l-3 -263 -105 -5 c-123 -6 -147 -17 -236 -100 -61 -57
-113 -80 -178 -80 -22 0 -26 -4 -26 -30 0 -27 3 -30 33 -30 68 0 134 29 195
84 89 83 119 95 239 97 56 0 106 -1 110 -4 5 -3 87 -26 183 -52 96 -26 183
-54 193 -62 22 -20 22 -57 0 -78 -21 -22 -54 -18 -228 30 -205 56 -186 56
-226 -11 -49 -82 -100 -116 -186 -123 -65 -6 -68 -7 -71 -33 -3 -28 -3 -28 60
-28 79 0 149 31 207 91 l41 43 -2 -279 -3 -280 -43 -3 c-23 -2 -68 4 -99 13
-48 14 -67 28 -122 85 -75 78 -129 107 -220 116 l-61 7 0 -32 c0 -28 3 -31 33
-31 18 0 57 -7 86 -16 43 -12 65 -28 118 -84 78 -82 134 -109 239 -117 l74 -6
0 -173 0 -174 635 0 635 0 0 895 0 895 -635 0 -635 0 -2 -262z m1212 -628 l0
-850 -575 0 -575 0 0 475 c0 261 2 475 5 475 3 0 65 -16 138 -35 173 -46 200
-46 244 2 32 34 35 41 31 85 -9 85 -23 92 -343 175 l-70 18 -3 253 -2 252 575
0 575 0 0 -850z"/>
<path d="M930 1680 l0 -30 300 0 300 0 0 30 0 30 -300 0 -300 0 0 -30z"/>
<path d="M810 1470 l0 -30 426 0 425 0 -3 28 -3 27 -422 3 -423 2 0 -30z"/>
<path d="M1172 1313 l3 -28 165 0 165 0 3 28 3 27 -171 0 -171 0 3 -27z"/>
<path d="M1110 1160 l0 -30 150 0 150 0 0 30 0 30 -150 0 -150 0 0 -30z"/>
<path d="M1110 1010 l0 -30 275 0 275 0 0 30 0 30 -275 0 -275 0 0 -30z"/>
<path d="M810 860 l0 -30 423 2 422 3 0 25 0 25 -422 3 -423 2 0 -30z"/>
<path d="M810 710 l0 -30 300 0 300 0 0 30 0 30 -300 0 -300 0 0 -30z"/>
<path d="M810 558 c0 -20 6 -27 23 -30 12 -2 203 -2 425 0 l403 2 -3 26 -3 25
-423 2 -422 2 0 -27z"/>
<path d="M1050 403 l0 -28 305 3 305 3 0 24 0 25 -305 0 -305 0 0 -27z"/>
</g>
</svg>
