<?xml version="1.0" standalone="no"?>
<!DOCTYPE svg PUBLIC "-//W3C//DTD SVG 20010904//EN"
 "http://www.w3.org/TR/2001/REC-SVG-20010904/DTD/svg10.dtd">
<svg version="1.0" xmlns="http://www.w3.org/2000/svg"
 width="298.000000pt" height="169.000000pt" viewBox="0 0 298.000000 169.000000"
 preserveAspectRatio="xMidYMid meet">

<g transform="translate(0.000000,169.000000) scale(0.100000,-0.100000)"
fill="#000000" stroke="none">
<path d="M10 1670 c0 -11 5 -20 11 -20 6 0 9 6 6 14 -3 8 -1 17 6 20 7 2 4 5
-5 5 -12 1 -18 -6 -18 -19z"/>
<path d="M48 1663 c7 -3 16 -2 19 1 4 3 -2 6 -13 5 -11 0 -14 -3 -6 -6z"/>
<path d="M268 1649 c-12 -7 -18 -23 -18 -49 0 -48 11 -51 27 -9 10 27 16 31
38 27 22 -5 26 -2 23 16 -3 24 -42 32 -70 15z"/>
<path d="M360 1616 c0 -40 -12 -53 -30 -31 -16 19 -40 8 -40 -20 0 -14 -7 -25
-17 -27 -15 -3 -13 -9 14 -37 18 -18 41 -31 50 -29 35 7 99 137 77 157 -5 5
-19 12 -31 16 -21 6 -23 3 -23 -29z m30 -30 c0 -30 -24 -50 -50 -43 -15 4 -20
0 -20 -15 0 -10 -4 -16 -10 -13 -11 7 -14 58 -3 68 3 4 14 0 24 -9 21 -19 39
-11 39 17 0 10 5 19 10 19 6 0 10 -11 10 -24z"/>
<path d="M733 1595 c-3 -9 -3 -19 1 -22 3 -4 6 1 6 11 0 10 5 14 12 10 7 -4 8
-3 4 4 -10 16 -15 15 -23 -3z"/>
<path d="M813 1592 c-3 -7 -3 -16 1 -19 3 -4 6 2 6 12 0 18 0 18 13 0 13 -17
14 -17 19 1 4 15 0 20 -15 20 -10 0 -22 -6 -24 -14z"/>
<path d="M451 1584 c0 -11 3 -14 6 -6 3 7 2 16 -1 19 -3 4 -6 -2 -5 -13z"/>
<path d="M495 1590 c3 -5 8 -10 11 -10 2 0 4 5 4 10 0 6 -5 10 -11 10 -5 0 -7
-4 -4 -10z"/>
<path d="M540 1585 c0 -8 4 -15 10 -15 5 0 7 7 4 15 -4 8 -8 15 -10 15 -2 0
-4 -7 -4 -15z"/>
<path d="M690 1585 c0 -8 2 -15 4 -15 2 0 6 7 10 15 3 8 1 15 -4 15 -6 0 -10
-7 -10 -15z"/>
<path d="M770 1589 c0 -5 5 -7 10 -4 6 3 10 8 10 11 0 2 -4 4 -10 4 -5 0 -10
-5 -10 -11z"/>
<path d="M510 1545 c-11 -13 -15 -13 -21 -3 -7 10 -9 10 -9 -1 0 -12 -3 -12
-12 -3 -20 20 -28 14 -27 -20 1 -25 3 -28 6 -10 4 23 5 23 24 6 13 -12 19 -13
19 -4 0 9 6 8 20 -5 15 -14 23 -15 33 -6 8 6 17 8 21 4 4 -4 11 -1 16 7 7 10
10 11 10 3 0 -7 5 -13 11 -13 5 0 7 4 4 10 -3 5 -1 18 4 27 10 17 11 16 12 -2
1 -11 1 -23 0 -27 0 -5 3 -8 8 -8 5 0 11 14 13 30 4 24 1 30 -13 30 -10 0 -25
-7 -33 -16 -15 -14 -16 -14 -16 2 0 13 -3 14 -14 5 -10 -8 -16 -9 -21 -1 -9
14 -20 13 -35 -5z m33 -8 c3 -8 1 -20 -4 -28 -8 -12 -10 -12 -18 0 -10 15 -4
41 9 41 4 0 10 -6 13 -13z"/>
<path d="M661 1530 c0 -26 2 -31 9 -20 7 11 12 12 18 4 7 -12 72 -14 72 -2 0
16 -13 38 -22 38 -6 0 -7 -7 -4 -16 3 -8 2 -13 -3 -9 -5 3 -12 -1 -14 -7 -3
-7 -6 -2 -7 12 -1 14 -4 19 -7 13 -7 -19 -31 -16 -36 5 -3 9 -5 1 -6 -18z"/>
<path d="M881 1552 c-6 -2 -9 -8 -5 -13 3 -5 1 -9 -5 -9 -5 0 -12 6 -14 13 -3
6 -6 -1 -6 -17 l-1 -29 25 27 c25 27 26 27 38 -14 2 -8 6 -1 9 17 4 31 -5 37
-41 25z"/>
<path d="M941 1542 c-14 -26 7 -56 32 -46 12 4 17 15 15 33 -4 32 -33 40 -47
13z m35 -28 c-5 -13 -10 -14 -18 -6 -6 6 -8 18 -4 28 5 13 10 14 18 6 6 -6 8
-18 4 -28z"/>
<path d="M1001 1529 c1 -19 3 -26 6 -16 5 18 6 18 24 1 18 -17 19 -16 18 17
-1 19 -3 26 -6 16 -5 -18 -6 -18 -24 -1 -18 17 -19 16 -18 -17z"/>
<path d="M777 1529 c-3 -13 -4 -25 -2 -28 3 -2 5 1 5 9 0 10 3 10 14 1 11 -9
16 -9 21 0 6 8 10 7 16 -2 6 -10 9 -8 9 8 0 27 -16 38 -24 16 -6 -15 -8 -14
-20 2 -12 17 -13 17 -19 -6z"/>
<path d="M0 1501 c0 -6 4 -13 10 -16 6 -3 7 1 4 9 -7 18 -14 21 -14 7z"/>
<path d="M30 1458 c0 -4 -7 -5 -15 -2 -12 5 -15 0 -13 -25 3 -36 13 -41 21
-10 3 12 10 18 17 14 6 -4 9 -1 8 7 -2 7 3 12 10 11 6 -2 12 1 12 6 0 6 -9 9
-20 8 -11 -1 -20 -5 -20 -9z"/>
<path d="M2000 1384 c-41 -34 -101 -82 -132 -106 -37 -27 -52 -44 -42 -46 8
-2 21 2 29 8 11 9 19 10 28 1 8 -6 17 -8 20 -4 4 3 13 1 21 -6 11 -9 15 -9 19
1 4 8 8 9 14 3 8 -10 63 -15 60 -5 -2 6 8 10 24 10 5 0 8 -4 4 -9 -3 -5 0 -13
6 -16 6 -4 14 -17 19 -29 10 -27 17 102 10 196 l-5 66 -75 -64z"/>
<path d="M79 1413 c-13 -17 -13 -17 6 -3 11 8 22 16 24 17 2 2 0 3 -6 3 -6 0
-17 -8 -24 -17z"/>
<path d="M13 1335 c-7 -8 -9 -16 -4 -19 5 -3 12 1 15 10 8 22 4 25 -11 9z"/>
<path d="M140 1301 c0 -17 18 -21 24 -6 3 9 0 15 -9 15 -8 0 -15 -4 -15 -9z"/>
<path d="M105 1290 c-3 -6 1 -7 9 -4 18 7 21 14 7 14 -6 0 -13 -4 -16 -10z"/>
<path d="M10 1280 c0 -5 5 -10 11 -10 5 0 7 5 4 10 -3 6 -8 10 -11 10 -2 0 -4
-4 -4 -10z"/>
<path d="M36 1265 c-3 -8 -1 -15 4 -15 6 0 10 7 10 15 0 8 -2 15 -4 15 -2 0
-6 -7 -10 -15z"/>
<path d="M299 1239 c-10 -6 -7 -9 14 -9 29 0 35 5 14 13 -8 3 -20 1 -28 -4z"/>
<path d="M77 1217 c-3 -9 1 -14 14 -13 22 1 27 20 6 24 -8 2 -17 -3 -20 -11z"/>
<path d="M350 1219 c0 -5 5 -7 10 -4 6 3 10 8 10 11 0 2 -4 4 -10 4 -5 0 -10
-5 -10 -11z"/>
<path d="M0 1210 c0 -5 5 -10 11 -10 5 0 7 5 4 10 -3 6 -8 10 -11 10 -2 0 -4
-4 -4 -10z"/>
<path d="M1850 1210 c-9 -6 -8 -10 6 -19 18 -11 18 -11 -1 -9 -20 3 -25 -2
-25 -24 0 -10 3 -9 9 1 11 16 22 1 26 -35 3 -28 -12 -43 -21 -20 -3 9 -10 16
-16 16 -5 0 -6 -4 -3 -10 3 -5 2 -10 -4 -10 -12 0 -25 45 -17 58 3 5 -4 18
-16 28 -15 13 -19 14 -14 4 4 -9 2 -8 -7 3 -8 9 -17 17 -20 17 -8 0 10 -60 23
-75 7 -8 10 -22 7 -32 -3 -15 -6 -13 -15 10 -6 15 -16 27 -22 27 -17 0 -23
-30 -11 -56 9 -20 8 -30 -6 -50 -14 -22 -14 -27 -2 -35 8 -5 20 -9 27 -9 6 0
12 -6 12 -14 0 -7 7 -19 15 -26 8 -7 15 -21 15 -31 0 -11 -7 -19 -15 -19 -8 0
-15 6 -15 13 0 6 -13 20 -30 29 -29 17 -30 16 -50 -13 -12 -16 -28 -29 -36
-29 -8 0 -17 -7 -20 -15 -5 -12 -10 -13 -20 -4 -10 8 -12 7 -9 -8 5 -30 -6
-40 -53 -45 l-43 -4 1 76 c1 41 1 107 0 145 l-1 70 -83 -87 -83 -88 -67 0
c-63 0 -68 1 -63 20 5 18 0 20 -53 20 l-59 0 -3 32 -3 32 -75 -1 c-41 -1 -80
-2 -87 -2 -6 -1 -14 -13 -16 -28 l-4 -28 -2 26 c0 17 -8 28 -21 32 -11 3 -20
1 -20 -5 0 -6 -31 -9 -80 -6 l-80 3 0 -27 c0 -26 -3 -28 -38 -28 -21 0 -43 5
-49 11 -8 8 -13 8 -17 0 -4 -7 -43 -11 -96 -11 -66 0 -92 -4 -104 -15 -8 -9
-19 -15 -23 -15 -4 1 -41 -14 -82 -32 -63 -28 -70 -33 -50 -38 13 -4 27 -2 30
3 4 5 12 1 18 -9 8 -15 12 -16 19 -6 8 11 10 11 15 -2 8 -20 -10 -31 -27 -17
-14 12 -28 2 -39 -29 -4 -10 -6 -7 -6 8 -1 12 4 22 10 22 5 0 7 5 4 10 -3 6
-21 10 -40 10 -29 0 -34 -3 -33 -22 0 -13 0 -51 -1 -85 -1 -53 -4 -63 -22 -68
-29 -9 -78 -13 -81 -6 -2 3 -22 18 -46 34 l-42 27 0 -103 c0 -98 1 -105 23
-115 l22 -11 -22 0 c-21 -1 -23 -6 -23 -51 l0 -50 40 0 c33 0 40 3 40 20 0 15
9 22 30 27 17 3 30 9 30 14 0 5 11 9 25 9 20 0 27 -6 32 -30 3 -17 9 -33 13
-35 5 -3 6 3 3 14 -2 10 5 36 17 57 19 34 21 35 17 12 -2 -17 1 -29 9 -32 21
-8 18 -64 -3 -69 -14 -4 -14 -5 3 -6 27 -1 46 20 34 39 -5 8 -4 22 1 33 8 14
6 22 -8 34 -14 12 -12 12 9 -1 34 -20 36 -20 34 1 -1 19 25 25 36 8 5 -6 8 -5
8 3 0 10 3 10 14 0 8 -7 12 -16 9 -20 -2 -5 1 -8 6 -8 13 0 14 49 2 69 -5 7
-14 10 -20 7 -6 -4 -11 -2 -11 4 0 8 -6 8 -20 0 -18 -10 -20 -8 -20 20 0 28
-3 30 -35 30 -35 0 -35 0 -35 45 0 42 2 45 28 45 33 0 46 -9 50 -35 6 -30 10
-30 18 -1 4 19 13 26 31 26 13 0 21 4 18 10 -3 6 -2 10 4 10 5 0 12 -6 14 -12
3 -8 6 -5 6 5 1 13 7 17 24 15 17 -2 23 -11 28 -43 l6 -40 2 38 c1 47 21 49
21 2 0 -38 19 -49 21 -12 1 21 1 21 9 -3 7 -23 8 -23 9 -3 1 12 5 24 10 27 5
4 7 -4 3 -16 -4 -16 -2 -19 8 -13 9 5 11 4 6 -4 -4 -6 0 -14 9 -17 25 -10 -2
-24 -47 -24 l-36 0 6 -42 c6 -49 28 -79 35 -50 4 16 5 16 6 0 1 -14 10 -18 36
-18 28 0 38 -5 45 -22 l9 -23 0 23 c1 12 -4 22 -10 22 -7 0 -8 7 -4 18 4 9 8
23 8 29 0 9 4 10 13 2 12 -10 11 -149 -2 -171 -4 -5 -2 -13 4 -17 5 -3 12 -37
13 -76 l4 -70 -100 -5 c-87 -4 -94 -6 -55 -12 25 -4 133 -10 240 -13 107 -3
212 -8 232 -11 21 -3 41 -3 46 0 5 3 6 28 2 56 -6 48 -5 50 17 50 21 0 23 4
23 55 0 40 -4 57 -15 61 -8 4 -15 17 -15 31 0 13 -4 21 -10 18 -5 -3 -10 2
-10 12 0 18 -59 53 -88 53 -6 0 -9 7 -6 15 5 13 9 13 22 3 12 -10 14 -10 8 0
-4 8 -1 12 10 12 11 0 15 -6 11 -19 -3 -14 -1 -18 9 -14 8 3 14 9 14 14 0 5 8
9 19 9 14 0 17 -6 13 -25 -3 -18 0 -25 12 -25 9 0 16 4 16 9 0 5 12 8 26 5 14
-3 23 -1 20 4 -2 4 -1 14 5 22 7 12 9 10 9 -9 0 -18 4 -22 20 -18 11 3 23 1
26 -5 4 -6 10 -5 15 3 17 28 34 -9 30 -64 -2 -29 -4 -80 -5 -115 l-1 -62 -50
-1 c-27 -1 -66 0 -85 1 -19 1 -32 -1 -28 -5 3 -4 52 -6 107 -6 l101 1 0 -79
c0 -66 -3 -80 -17 -83 -9 -2 -75 0 -147 4 -225 11 -349 8 -364 -7 -4 -4 12 -6
36 -3 23 2 42 1 42 -3 0 -4 30 -6 68 -6 140 1 162 -2 162 -21 0 -14 8 -17 36
-16 35 2 62 14 31 14 -9 0 -17 5 -17 10 0 6 9 10 20 10 13 0 20 -7 20 -20 0
-11 5 -20 11 -20 6 0 9 7 5 15 -4 12 5 15 53 15 34 0 61 -5 63 -11 2 -6 14 -8
31 -4 15 4 24 11 21 16 -3 5 0 9 5 9 6 0 11 9 11 19 0 10 7 22 16 25 9 3 14
15 13 28 -1 13 1 43 6 68 5 25 8 56 7 70 l-1 25 7 -25 c5 -17 10 -21 16 -12 4
6 4 17 1 22 -3 6 2 18 11 28 17 16 17 16 11 0 -3 -10 -2 -20 3 -23 6 -4 10 -5
11 -3 11 66 9 119 -7 143 -13 19 -14 29 -5 38 15 15 14 28 -1 25 -7 -2 -11 4
-9 12 2 8 5 27 5 43 0 15 4 27 8 27 4 0 8 -9 8 -19 0 -11 4 -22 9 -26 6 -3 10
-22 11 -43 0 -20 1 -53 3 -72 l2 -34 98 -1 c142 -2 158 2 151 31 -4 14 -2 24
4 24 6 0 12 -12 14 -28 l3 -27 143 -3 c114 -2 142 -5 142 -17 0 -7 -10 -21
-22 -31 -23 -16 -23 -16 11 -10 18 3 40 6 47 6 10 0 13 7 8 24 -4 18 -1 25 18
30 19 5 20 8 8 15 -8 6 -11 14 -6 18 4 4 13 0 20 -10 20 -26 44 -21 49 11 l4
27 2 -27 c1 -30 12 -33 61 -19 l25 7 -22 8 c-13 4 -23 12 -23 17 0 5 9 4 21
-3 17 -11 22 -10 30 5 6 9 14 17 19 17 13 0 13 -37 1 -42 -5 -2 -11 -22 -15
-45 -3 -24 -13 -57 -21 -75 l-16 -33 20 25 c11 14 23 21 27 17 4 -4 2 -7 -4
-7 -7 0 -12 -4 -12 -10 0 -5 19 -10 43 -10 23 0 37 4 30 8 -8 5 -3 12 16 20
57 25 45 106 -20 134 -21 9 -39 21 -39 27 0 17 80 14 86 -4 4 -8 14 -15 23
-15 12 0 17 -11 19 -52 9 -205 -5 -303 -38 -263 -8 10 -9 15 -1 15 7 0 5 13
-5 40 -9 22 -14 46 -11 54 7 17 -13 26 -59 26 l-34 0 0 -74 0 -73 -70 -7 c-39
-4 -80 -4 -93 0 -15 4 -19 3 -12 -4 6 -6 39 -13 75 -15 36 -3 -18 -3 -120 -2
-102 2 -176 0 -165 -4 11 -4 85 -9 165 -10 80 -1 165 -7 190 -13 25 -5 70 -11
100 -13 30 -1 64 -6 74 -10 14 -6 17 -5 12 3 -4 7 -14 12 -22 12 -17 0 -19 16
-2 26 7 4 8 3 4 -4 -10 -16 7 -15 23 0 11 10 13 10 7 1 -4 -8 -1 -13 8 -13 9
0 16 5 16 10 0 13 71 13 107 -1 22 -8 24 -12 13 -19 -8 -6 -10 -10 -4 -10 5 0
14 4 20 9 5 5 18 11 29 14 14 3 11 5 -10 6 -30 1 -73 21 -47 21 7 0 10 5 6 11
-4 8 -9 8 -17 0 -14 -14 -27 -14 -27 0 0 5 4 8 9 4 10 -6 7 110 -4 144 -4 13
0 23 12 29 12 7 18 24 19 54 1 23 4 50 7 58 3 8 7 22 10 30 3 12 27 15 140 15
75 0 137 -1 137 -2 0 -1 -4 -13 -10 -27 -9 -24 -15 -26 -64 -26 l-55 0 0 -55
0 -55 52 0 c61 0 82 -11 75 -38 -3 -11 0 -42 7 -68 7 -27 10 -53 7 -58 -2 -4
-25 -6 -51 -3 -37 5 -41 4 -21 -4 14 -6 36 -9 50 -7 15 2 32 -4 43 -14 16 -17
16 -18 -14 -18 -18 0 -49 5 -71 12 -29 9 -41 9 -50 0 -9 -9 -9 -12 3 -12 12 0
12 -2 0 -9 -11 -7 -3 -12 29 -21 32 -9 40 -14 29 -21 -9 -5 24 -9 89 -9 l102
0 0 356 0 355 -105 -2 -105 -2 -2 -36 -1 -36 -4 34 -4 34 -260 -6 c-142 -3
-259 -3 -260 1 0 4 -1 29 -2 55 0 33 -5 46 -13 43 -15 -6 -25 27 -13 45 14 22
10 56 -7 73 -21 22 -33 20 -44 -6 -6 -17 -8 -6 -6 37 2 33 5 66 7 74 2 7 -2
16 -8 18 -13 5 -14 -1 -17 -72 -2 -45 -14 -69 -36 -77 -11 -4 -7 -9 13 -17 22
-9 27 -15 22 -31 -5 -14 -2 -20 10 -20 12 0 15 -9 14 -37 -1 -45 5 -85 16
-104 6 -11 5 -12 -5 -2 -7 7 -14 23 -15 35 -1 16 -9 24 -26 26 -20 2 -21 1 -9
-8 13 -10 13 -11 0 -7 -8 2 -15 14 -14 26 0 12 -6 21 -13 21 -8 0 -12 4 -9 9
4 5 0 12 -6 14 -10 4 -10 8 1 15 7 5 9 12 4 15 -5 3 -6 33 -3 67 6 67 -1 93
-19 64 -6 -11 -11 -14 -11 -8 0 6 -11 23 -25 38 l-24 26 24 16 c14 9 25 23 25
30 0 8 4 14 10 14 5 0 7 7 3 17 -5 14 -8 13 -15 -6 l-8 -23 -19 23 c-19 24
-19 24 0 45 25 26 24 44 -1 37 -16 -4 -18 -9 -10 -19 9 -9 6 -15 -12 -24 -21
-10 -21 -10 -5 3 12 10 14 17 8 22 -15 9 -14 21 4 39 9 9 11 17 5 21 -5 3 -10
2 -10 -4 0 -6 -7 -8 -15 -5 -8 4 -15 2 -15 -4 0 -6 6 -13 13 -15 9 -4 9 -6 0
-6 -7 -1 -10 -8 -7 -16 11 -28 -5 -15 -22 18 -9 17 -18 33 -19 35 -1 1 -14 -2
-29 -8 -15 -5 -25 -6 -22 -1 8 12 -18 21 -34 11z m84 -66 c3 -8 12 -12 18 -9
7 4 6 0 -4 -7 -12 -10 -14 -18 -6 -32 5 -9 7 -20 4 -23 -3 -3 -10 6 -15 21 -6
14 -16 26 -23 27 -10 0 -10 2 -1 5 7 3 9 12 6 20 -3 8 -1 14 5 14 5 0 13 -7
16 -16z m-72 -76 c-9 -9 -15 -9 -24 0 -9 9 -7 12 12 12 19 0 21 -3 12 -12z
m-65 -74 c-3 -3 -12 -4 -19 -1 -8 3 -5 6 6 6 11 1 17 -2 13 -5z m-1177 -39 c0
-11 6 -12 25 -5 16 6 25 6 25 0 0 -18 20 -11 22 8 0 9 4 -5 8 -33 6 -46 7 -47
8 -12 2 39 10 44 43 27 16 -9 19 -7 19 15 0 41 18 19 25 -30 5 -29 13 -45 24
-48 9 -2 -33 -5 -93 -5 -60 -1 -111 -4 -113 -6 -2 -2 1 -14 6 -27 5 -13 10
-18 10 -11 1 6 10 12 21 12 16 0 20 -7 20 -35 0 -19 5 -35 10 -35 6 0 10 21
10 47 0 54 10 52 17 -4 6 -45 2 -40 33 -45 23 -3 25 0 26 39 1 49 12 68 21 35
4 -17 9 -20 23 -12 15 8 19 4 24 -25 4 -19 11 -35 16 -35 14 0 13 57 -1 66 -8
4 -8 9 0 17 15 15 24 3 32 -46 l8 -42 -2 43 c-2 28 2 42 10 42 9 0 11 -12 7
-40 -4 -26 -2 -40 5 -40 6 0 11 10 11 23 0 18 2 19 10 7 7 -11 10 -5 10 23 0
28 3 36 13 30 6 -4 20 -6 30 -5 9 2 17 -2 17 -7 0 -6 -6 -11 -13 -11 -9 0 -14
-12 -15 -30 -1 -27 3 -30 28 -30 27 0 29 3 33 48 l3 47 2 -51 c2 -49 3 -51 26
-47 15 3 27 14 29 27 3 11 4 5 4 -14 l-1 -36 -55 -1 c-31 -1 -72 -1 -91 -1
-140 2 -513 -2 -518 -6 -4 -2 -6 35 -5 82 1 48 2 102 2 120 1 30 3 32 29 26
15 -4 31 -11 36 -15 16 -14 26 -11 26 9 1 16 1 16 10 0 6 -10 18 -14 30 -11
14 4 21 -1 25 -20 4 -14 4 -31 -1 -38 -4 -8 -3 -9 4 -5 7 4 12 27 12 52 0 28
4 43 10 39 6 -3 10 -13 10 -20z m260 -42 c0 -36 -3 -43 -20 -43 -16 0 -20 7
-20 31 0 17 4 28 10 24 6 -4 10 7 10 27 0 25 3 29 10 18 5 -8 10 -34 10 -57z
m90 -5 c0 -34 -3 -38 -25 -38 -21 0 -25 5 -25 31 0 17 4 28 10 24 6 -4 10 7
10 27 1 31 1 32 15 14 8 -11 15 -37 15 -58z m100 42 c17 0 20 -7 20 -40 l0
-40 -57 1 c-32 1 -50 3 -40 6 10 3 17 14 17 29 0 13 5 24 10 24 6 0 10 12 10
28 1 23 2 24 11 10 5 -10 19 -18 29 -18z m71 -10 c5 0 9 -10 10 -22 1 -16 5
-11 14 17 l13 40 1 -37 c1 -34 4 -38 29 -38 31 -1 62 -21 62 -41 0 -12 2 -12
9 0 7 11 11 10 20 -7 10 -19 7 -20 -54 -27 -36 -3 -65 -11 -65 -16 0 -5 10 -9
23 -9 32 0 49 -14 41 -34 -5 -13 -9 -15 -15 -5 -5 9 -11 10 -21 2 -20 -15 -48
-12 -48 6 0 44 13 92 21 79 7 -11 11 -10 19 2 8 12 2 16 -35 18 -31 2 -45 8
-46 18 -2 23 -1 53 1 72 2 16 3 16 7 0 2 -10 9 -18 14 -18z m846 8 c-3 -8 -6
-5 -6 6 -1 11 2 17 5 13 3 -3 4 -12 1 -19z m-62 3 c3 -5 1 -12 -5 -16 -5 -3
-10 1 -10 9 0 18 6 21 15 7z m-1505 -10 c0 -5 -9 -12 -19 -16 -13 -4 -18 -12
-14 -22 4 -11 3 -14 -6 -9 -6 4 -19 2 -27 -5 -8 -6 -17 -9 -20 -6 -10 9 5 39
15 33 5 -3 14 1 21 9 7 8 16 12 21 9 5 -3 9 0 9 5 0 6 5 11 10 11 6 0 10 -4
10 -9z m1410 -11 c0 -5 6 -7 13 -4 12 4 15 -14 8 -46 -2 -8 -41 41 -41 51 0 5
5 9 10 9 6 0 10 -4 10 -10z m180 -10 c0 -5 -7 -7 -15 -4 -8 4 -15 8 -15 10 0
2 7 4 15 4 8 0 15 -4 15 -10z m-1113 -42 c-3 -7 -5 -2 -5 12 0 14 2 19 5 13 2
-7 2 -19 0 -25z m1313 -4 c0 -8 -5 -12 -10 -9 -6 4 -8 11 -5 16 9 14 15 11 15
-7z m-355 -24 c3 -5 13 -7 23 -4 11 4 13 3 5 -3 -6 -4 -13 -29 -15 -53 -3 -41
-8 -41 -21 0 -7 24 -6 35 4 33 15 -5 10 9 -8 23 -10 7 -13 14 -6 14 6 0 14 -4
18 -10z m-775 -4 c0 -11 -19 -15 -25 -6 -3 5 1 10 9 10 9 0 16 -2 16 -4z m50
-11 c0 -8 6 -15 13 -15 8 0 7 -4 -3 -10 -10 -6 -11 -10 -2 -10 18 0 15 -37 -4
-44 -9 -3 -18 -6 -20 -6 -2 0 -4 23 -4 50 0 28 5 50 10 50 6 0 10 -7 10 -15z
m1070 6 c0 -17 -18 -21 -24 -6 -3 9 0 15 9 15 8 0 15 -4 15 -9z m-1843 -27
c-3 -3 -12 -4 -19 -1 -8 3 -5 6 6 6 11 1 17 -2 13 -5z m1563 -5 c0 6 5 11 11
11 5 0 9 -8 8 -17 -3 -37 2 -53 17 -53 24 0 10 -25 -15 -26 -19 -1 -22 3 -18
23 3 16 -2 32 -14 44 -23 23 -25 37 -4 19 10 -9 15 -9 15 -1z m-276 -25 c3 -9
10 -12 16 -9 5 3 10 -3 10 -14 0 -11 5 -23 10 -26 8 -5 7 -11 0 -20 -7 -8 -9
-18 -6 -23 6 -10 -51 -25 -64 -17 -9 5 -12 92 -4 117 6 19 30 14 38 -8z m-629
6 c3 -5 1 -10 -4 -10 -6 0 -11 5 -11 10 0 6 2 10 4 10 3 0 8 -4 11 -10z m575
-138 c0 -79 -3 -112 -10 -102 -7 11 -10 7 -10 -17 0 -18 -3 -33 -8 -33 -13 0
-15 249 -2 265 23 28 30 3 30 -113z m631 96 c0 -7 2 -21 4 -31 4 -23 -22 -34
-38 -17 -9 10 -9 11 3 5 12 -7 13 -6 3 7 -7 8 -10 18 -6 21 3 4 0 7 -8 7 -11
0 -11 2 1 10 21 14 40 12 41 -2z m-221 -8 c0 -5 -5 -10 -11 -10 -5 0 -7 5 -4
10 3 6 8 10 11 10 2 0 4 -4 4 -10z m-794 -57 c2 -40 4 -42 27 -46 12 -2 5 -5
-18 -5 -29 -1 -36 1 -25 8 13 8 11 11 -7 16 -41 11 -40 58 0 52 15 -2 22 -11
23 -25z m-966 7 c0 -5 -4 -10 -9 -10 -6 0 -13 5 -16 10 -3 6 1 10 9 10 9 0 16
-4 16 -10z m1745 0 c3 -5 -1 -10 -10 -10 -9 0 -13 5 -10 10 3 6 8 10 10 10 2
0 7 -4 10 -10z m155 0 c0 -4 -6 -13 -14 -20 -12 -9 -15 -8 -13 8 1 17 27 28
27 12z m-190 -31 c0 -5 -4 -9 -10 -9 -5 0 -10 7 -10 16 0 8 5 12 10 9 6 -3 10
-10 10 -16z m-890 -1 c0 -4 25 -8 55 -8 48 0 55 -3 55 -19 0 -11 8 -21 17 -23
15 -3 15 -5 -3 -22 -19 -20 -20 -23 -23 -51 0 -8 -5 -15 -11 -15 -6 0 -9 3 -9
8 1 4 1 16 0 27 -1 16 -3 17 -10 6 -5 -8 -16 -11 -25 -8 -12 5 -19 0 -25 -15
l-8 -22 -12 21 c-6 12 -11 38 -11 57 0 32 -3 36 -25 36 -14 0 -25 5 -25 10 0
6 7 10 15 10 8 0 15 4 15 8 0 5 7 9 15 9 8 0 15 -4 15 -9z m-280 -12 c0 -3 -4
-8 -10 -11 -5 -3 -10 -1 -10 4 0 6 5 11 10 11 6 0 10 -2 10 -4z m160 -6 c0 -5
-4 -10 -10 -10 -5 0 -10 5 -10 10 0 6 5 10 10 10 6 0 10 -4 10 -10z m938 -51
c1 -22 -3 -39 -9 -39 -5 0 -9 7 -9 15 0 8 -4 15 -10 15 -15 0 -12 58 3 63 17
6 25 -10 25 -54z m-50 -1 c-4 -74 -28 -77 -28 -4 0 44 3 56 16 56 12 0 14 -10
12 -52z m195 -12 c6 -16 -2 -28 -14 -20 -12 7 -11 34 0 34 5 0 11 -6 14 -14z
m-1423 -25 c0 -10 -7 -22 -16 -25 -8 -3 -13 -2 -11 2 2 4 7 15 10 25 8 23 17
22 17 -2z m250 9 c0 -5 -2 -10 -4 -10 -3 0 -8 5 -11 10 -3 6 -1 10 4 10 6 0
11 -4 11 -10z m350 -5 c-7 -9 -15 -13 -17 -11 -7 7 7 26 19 26 6 0 6 -6 -2
-15z m39 -19 c-14 -29 -29 -34 -29 -10 0 15 31 47 38 39 1 -1 -3 -14 -9 -29z
m66 24 c-3 -5 -2 -10 4 -10 13 0 3 -60 -12 -75 -6 -7 -8 0 -4 18 3 19 0 30 -9
34 -23 8 -17 43 7 43 11 0 17 -4 14 -10z m1155 0 c0 -5 -7 -7 -15 -4 -8 4 -15
8 -15 10 0 2 7 4 15 4 8 0 15 -4 15 -10z m-1549 -15 c5 4 6 -1 3 -9 -3 -9 -10
-16 -14 -16 -14 0 -22 19 -14 32 6 9 9 9 12 0 2 -7 8 -10 13 -7z m-811 -20 c0
-8 -4 -15 -10 -15 -5 0 -10 7 -10 15 0 8 5 15 10 15 6 0 10 -7 10 -15z m17 -7
c-3 -8 -6 -5 -6 6 -1 11 2 17 5 13 3 -3 4 -12 1 -19z m747 7 c3 -8 15 -15 27
-15 15 0 19 -5 15 -15 -3 -8 0 -14 7 -12 8 1 12 -17 12 -60 0 -34 3 -65 8 -69
13 -14 7 -34 -10 -35 -14 0 -13 -2 5 -9 18 -8 22 -17 22 -55 l0 -45 -45 0 -46
0 7 62 c4 35 13 69 21 76 22 23 15 27 -38 23 -46 -3 -50 -5 -46 -25 3 -11 9
-46 12 -76 l7 -56 -37 -2 c-65 -5 -70 1 -67 65 2 32 8 68 14 80 6 11 8 27 5
35 -2 7 2 20 9 29 12 14 12 21 -1 52 l-15 37 32 0 c18 1 44 7 58 15 32 18 37
18 44 0z m1906 -36 c0 -45 -2 -50 -15 -39 -10 8 -12 17 -6 24 5 6 8 23 6 39
-2 15 1 27 6 27 5 0 9 -23 9 -51z m-280 31 c11 -7 7 -10 -18 -10 -20 0 -31 4
-27 10 8 13 26 13 45 0z m-1033 -22 c-3 -8 -6 -5 -6 6 -1 11 2 17 5 13 3 -3 4
-12 1 -19z m-507 2 c0 -5 -4 -10 -10 -10 -5 0 -10 5 -10 10 0 6 5 10 10 10 6
0 10 -4 10 -10z m655 -38 c-3 -8 -5 -23 -5 -34 0 -17 -3 -18 -15 -8 -8 6 -20
9 -27 5 -7 -4 -4 1 7 10 16 12 17 18 7 24 -11 7 -11 9 2 14 10 4 13 13 10 24
-5 16 -4 15 10 -2 9 -11 14 -26 11 -33z m-345 28 c0 -5 -4 -10 -9 -10 -6 0
-13 5 -16 10 -3 6 1 10 9 10 9 0 16 -4 16 -10z m103 3 c-7 -2 -21 -2 -30 0
-10 3 -4 5 12 5 17 0 24 -2 18 -5z m322 -13 c10 8 15 8 20 -1 9 -14 -13 -29
-32 -22 -11 4 -11 0 -3 -22 13 -35 13 -35 -10 -35 -23 0 -26 10 -8 28 9 9 9
12 0 12 -9 0 -9 6 0 26 7 15 14 21 16 15 3 -9 8 -9 17 -1z m151 -5 c12 -4 27
-16 33 -28 l12 -22 -5 23 c-2 12 0 22 5 22 5 0 9 -9 9 -19 0 -11 3 -27 7 -36
5 -14 2 -16 -18 -10 -13 4 -28 15 -33 23 -8 14 -10 14 -17 -3 -7 -19 -8 -18
-8 3 -1 22 -9 26 -43 23 -10 -1 -18 3 -18 9 0 7 -7 10 -15 7 -8 -4 -17 -2 -20
3 -9 15 71 19 111 5z m345 -8 c-10 -9 -11 -8 -5 6 3 10 9 15 12 12 3 -3 0 -11
-7 -18z m-803 -12 c-3 -3 -9 2 -12 12 -6 14 -5 15 5 6 7 -7 10 -15 7 -18z m96
10 c3 -8 1 -15 -4 -15 -6 0 -10 7 -10 15 0 8 2 15 4 15 2 0 6 -7 10 -15z m456
-26 c0 -22 -4 -38 -9 -35 -11 7 -10 76 1 76 4 0 8 -18 8 -41z m210 20 c0 -5
-4 -9 -10 -9 -5 0 -10 7 -10 16 0 8 5 12 10 9 6 -3 10 -10 10 -16z m17 -11
c-3 -7 -5 -2 -5 12 0 14 2 19 5 13 2 -7 2 -19 0 -25z m-845 -28 c31 -51 46
-64 33 -32 -4 13 -3 14 5 6 6 -6 10 -23 8 -36 -3 -22 -9 -17 -51 43 -26 38
-43 69 -37 69 6 0 25 -22 42 -50z m212 35 c-4 -8 -1 -15 5 -15 6 0 11 -4 11
-10 0 -19 -21 -10 -30 13 -8 21 -9 21 -9 -5 -1 -21 -6 -28 -21 -28 -12 0 -20
7 -20 16 0 14 3 14 15 4 13 -11 15 -8 15 14 0 19 5 26 20 26 13 0 18 -5 14
-15z m106 0 c0 -8 -4 -15 -10 -15 -5 0 -7 7 -4 15 4 8 8 15 10 15 2 0 4 -7 4
-15z m-227 -19 c4 -10 1 -13 -8 -9 -8 3 -12 9 -9 14 7 12 11 11 17 -5z m553
-23 c-10 -10 -19 5 -10 18 6 11 8 11 12 0 2 -7 1 -15 -2 -18z m37 13 c4 -10 1
-13 -8 -9 -8 3 -12 9 -9 14 7 12 11 11 17 -5z m-203 -11 c0 -9 -6 -12 -16 -8
-13 5 -13 7 -2 14 17 11 18 11 18 -6z m227 -7 c-3 -8 -6 -5 -6 6 -1 11 2 17 5
13 3 -3 4 -12 1 -19z m90 0 c-3 -8 -6 -5 -6 6 -1 11 2 17 5 13 3 -3 4 -12 1
-19z m-697 -31 c0 -18 -2 -19 -10 -7 -13 20 -13 43 0 35 6 -3 10 -16 10 -28z
m-369 10 c0 4 5 -5 10 -21 10 -37 8 -40 -25 -25 -17 8 -26 20 -26 36 0 21 3
22 20 13 11 -6 20 -7 21 -3z m206 -19 c-3 -8 -6 -5 -6 6 -1 11 2 17 5 13 3 -3
4 -12 1 -19z m778 -18 c3 -5 1 -10 -4 -10 -6 0 -11 5 -11 10 0 6 2 10 4 10 3
0 8 -4 11 -10z m-1328 -69 c4 -42 2 -61 -6 -61 -7 0 -11 24 -11 67 0 81 10 77
17 -6z m546 22 c4 -31 2 -43 -8 -43 -8 0 -12 11 -10 33 2 17 3 38 4 46 2 24 8
8 14 -36z m-260 17 c3 -11 1 -20 -4 -20 -5 0 -9 9 -9 20 0 11 2 20 4 20 2 0 6
-9 9 -20z m44 -12 c-3 -8 -6 -5 -6 6 -1 11 2 17 5 13 3 -3 4 -12 1 -19z m-22
-54 c21 -51 19 -66 -7 -62 -20 3 -23 10 -26 51 -4 57 12 62 33 11z m1309 -109
c20 -30 20 -30 -11 -39 -23 -7 -23 -6 -22 71 1 64 3 70 8 37 4 -23 15 -54 25
-69z m147 73 c1 -13 3 -42 4 -65 3 -39 2 -43 -19 -41 -21 2 -23 7 -21 45 4 52
13 83 26 83 5 0 9 -10 10 -22z m-1151 -35 c0 -21 -3 -24 -9 -14 -5 8 -7 20 -4
28 8 21 13 15 13 -14z m1057 -89 c-3 -3 -12 -4 -19 -1 -8 3 -5 6 6 6 11 1 17
-2 13 -5z m-20 -30 c-3 -3 -12 -4 -19 -1 -8 3 -5 6 6 6 11 1 17 -2 13 -5z"/>
<path d="M458 904 c-16 -8 -28 -17 -28 -20 0 -3 5 -2 10 1 6 3 10 1 10 -4 0
-18 14 -12 28 10 17 27 13 30 -20 13z"/>
<path d="M490 872 c0 -6 6 -13 13 -15 9 -4 9 -6 -1 -6 -7 -1 -11 -5 -8 -10 3
-5 0 -11 -8 -14 -9 -4 -16 3 -20 16 -9 35 -15 15 -9 -31 4 -33 10 -42 25 -42
15 0 17 3 8 19 -7 15 -7 22 3 28 8 4 19 17 25 28 9 18 12 15 22 -25 9 -38 16
-46 36 -48 22 -2 24 1 24 48 l0 50 -39 0 c-22 0 -46 3 -55 6 -9 3 -16 2 -16
-4z"/>
<path d="M779 474 c-1 -11 -3 -32 -5 -48 -2 -16 1 -37 6 -45 7 -12 9 -10 10
13 0 23 2 26 14 17 12 -10 13 -8 9 10 -5 16 -3 20 6 14 18 -10 -2 27 -23 45
-14 10 -16 10 -17 -6z"/>
<path d="M870 451 c0 -6 4 -13 10 -16 6 -3 7 1 4 9 -7 18 -14 21 -14 7z"/>
<path d="M888 293 c6 -2 18 -2 25 0 6 3 1 5 -13 5 -14 0 -19 -2 -12 -5z"/>
<path d="M70 1175 c0 -8 -7 -15 -16 -15 -14 0 -14 -1 0 -16 9 -8 26 -13 38
-11 l23 4 -21 8 c-15 5 -20 13 -17 26 3 10 3 19 -1 19 -3 0 -6 -7 -6 -15z"/>
<path d="M1550 1083 c0 -87 18 -85 21 2 2 37 3 41 6 18 2 -18 8 -33 14 -33 5
0 9 -11 9 -25 0 -16 6 -25 16 -25 12 0 15 7 12 30 -3 19 0 30 8 30 6 0 15 7
18 16 3 8 10 13 15 9 5 -3 11 5 13 17 2 15 9 22 21 22 9 -1 17 2 17 7 0 5 -38
9 -85 9 l-85 0 0 -77z"/>
<path d="M2173 1153 c-128 -4 -138 -23 -13 -23 59 0 90 -4 90 -11 0 -7 -10 -9
-25 -5 -14 4 -25 2 -25 -4 0 -5 20 -10 45 -10 43 0 45 1 45 30 0 17 -3 29 -7
28 -5 -1 -54 -4 -110 -5z"/>
<path d="M253 1115 c0 -8 4 -15 9 -15 4 0 8 7 8 15 0 8 -4 15 -8 15 -5 0 -9
-7 -9 -15z"/>
<path d="M20 1116 c0 -10 62 -34 76 -29 23 9 16 21 -10 16 -13 -3 -27 0 -30 6
-7 10 -36 16 -36 7z"/>
<path d="M2090 1108 c0 -12 88 -10 95 3 5 6 -10 9 -44 8 -28 -2 -51 -6 -51
-11z"/>
<path d="M196 1097 c3 -10 9 -15 12 -12 3 3 0 11 -7 18 -10 9 -11 8 -5 -6z"/>
<path d="M286 1088 c3 -5 10 -6 15 -3 13 9 11 12 -6 12 -8 0 -12 -4 -9 -9z"/>
<path d="M4 1071 c0 -11 5 -17 13 -14 7 3 13 11 13 19 0 8 -6 14 -13 14 -7 0
-13 -8 -13 -19z"/>
<path d="M1660 1079 c0 -5 5 -7 10 -4 6 3 10 8 10 11 0 2 -4 4 -10 4 -5 0 -10
-5 -10 -11z"/>
<path d="M40 1058 c0 -4 4 -8 9 -8 6 0 12 4 15 8 3 5 -1 9 -9 9 -8 0 -15 -4
-15 -9z"/>
<path d="M85 1059 c-11 -17 1 -21 15 -4 8 9 8 15 2 15 -6 0 -14 -5 -17 -11z"/>
<path d="M2110 1046 c0 -8 5 -18 10 -21 6 -3 10 1 10 9 0 8 -4 18 -10 21 -5 3
-10 -1 -10 -9z"/>
<path d="M106 1042 c-2 -4 4 -8 14 -8 10 0 16 4 14 8 -3 4 -9 8 -14 8 -5 0
-11 -4 -14 -8z"/>
<path d="M276 1043 c5 -5 12 -12 16 -18 4 -6 8 -2 8 8 0 9 -7 17 -17 17 -9 0
-12 -3 -7 -7z"/>
<path d="M315 1030 c-3 -5 -1 -10 4 -10 6 0 11 5 11 10 0 6 -2 10 -4 10 -3 0
-8 -4 -11 -10z"/>
<path d="M10 1026 c0 -2 7 -6 15 -10 8 -3 15 -1 15 4 0 6 -7 10 -15 10 -8 0
-15 -2 -15 -4z"/>
<path d="M148 1023 c-10 -2 -18 -8 -18 -13 0 -5 7 -6 17 -3 11 4 14 3 9 -5 -4
-7 -15 -12 -24 -12 -29 0 1 -18 42 -26 33 -6 38 -4 33 9 -7 19 16 30 32 14 6
-6 21 -12 33 -14 21 -2 20 -1 -4 13 -16 8 -28 19 -28 24 0 5 -12 7 -27 6 -21
-3 -27 -8 -25 -22 3 -18 3 -18 -11 1 -9 11 -13 23 -11 27 3 5 4 7 2 7 -2 -1
-11 -3 -20 -6z"/>
<path d="M54 1008 c6 -19 -18 -26 -29 -8 -10 16 -25 12 -25 -7 0 -9 3 -14 6
-10 9 9 55 -36 50 -49 -3 -8 3 -10 16 -6 16 4 20 1 16 -10 -5 -11 1 -13 26
-10 l31 5 -28 10 c-22 7 -27 14 -24 29 4 14 2 17 -7 9 -9 -8 -12 -5 -11 10 1
11 8 25 16 31 11 8 10 8 -5 4 -11 -4 -23 -1 -29 6 -6 9 -7 8 -3 -4z"/>
<path d="M2030 1016 c0 -2 8 -10 18 -17 15 -13 16 -12 3 4 -13 16 -21 21 -21
13z"/>
<path d="M2170 985 c0 -8 2 -15 4 -15 2 0 6 7 10 15 3 8 1 15 -4 15 -6 0 -10
-7 -10 -15z"/>
<path d="M1550 915 c0 -97 14 -97 18 0 2 48 -1 75 -7 75 -7 0 -11 -29 -11 -75z"/>
<path d="M3 891 c-2 -42 2 -63 13 -72 13 -10 14 -8 9 19 -3 20 -1 32 5 32 6 0
8 -4 5 -10 -3 -5 -2 -10 3 -10 6 0 12 7 16 15 3 8 9 15 13 14 33 -5 31 5 -4
21 -45 20 -54 36 -25 43 11 3 9 5 -8 6 -25 1 -26 -2 -27 -58z"/>
<path d="M2095 840 c3 -5 8 -10 11 -10 2 0 4 5 4 10 0 6 -5 10 -11 10 -5 0 -7
-4 -4 -10z"/>
<path d="M2125 801 c-3 -5 -2 -12 3 -15 5 -3 9 1 9 9 0 17 -3 19 -12 6z"/>
<path d="M4 785 c-6 -16 17 -45 36 -45 7 0 5 6 -4 15 -8 9 -13 22 -10 30 4 8
1 15 -5 15 -7 0 -14 -7 -17 -15z"/>
<path d="M2281 744 c0 -11 3 -14 6 -6 3 7 2 16 -1 19 -3 4 -6 -2 -5 -13z"/>
<path d="M140 720 c0 -5 5 -10 10 -10 6 0 10 5 10 10 0 6 -4 10 -10 10 -5 0
-10 -4 -10 -10z"/>
<path d="M426 528 c-3 -17 -4 -33 -1 -36 3 -3 5 1 5 9 0 10 2 11 8 2 5 -7 13
-9 22 -3 11 7 12 14 2 34 -16 35 -28 33 -36 -6z"/>
<path d="M1067 460 c-3 -11 -1 -20 4 -20 5 0 9 9 9 20 0 11 -2 20 -4 20 -2 0
-6 -9 -9 -20z"/>
<path d="M11 343 c8 -8 18 -9 40 -1 16 5 29 11 29 12 0 1 -18 1 -39 1 -30 0
-37 -3 -30 -12z"/>
<path d="M0 310 c0 -13 70 -13 90 0 11 7 0 10 -37 10 -29 0 -53 -4 -53 -10z"/>
<path d="M180 303 c0 -15 19 -37 26 -31 3 4 -1 14 -10 23 -9 9 -16 13 -16 8z"/>
<path d="M0 140 l0 -140 226 0 c199 0 228 2 239 17 9 13 14 13 20 3 5 -9 4
-11 -3 -6 -7 4 -12 2 -12 -3 0 -6 17 -11 37 -11 l36 0 -21 23 -21 22 52 -1
c29 0 57 -2 62 -4 6 -1 21 -2 34 -1 51 2 -8 23 -66 23 -13 0 -23 5 -23 11 0 5
-8 3 -18 -5 -26 -23 -53 -18 -96 18 -21 18 -42 31 -47 29 -4 -3 -15 2 -24 11
-12 13 -19 14 -28 5 -8 -8 -7 -11 3 -11 11 0 11 -3 2 -12 -15 -15 -29 1 -39
45 -3 15 -12 27 -19 27 -7 0 -11 6 -8 14 4 11 0 13 -14 9 -11 -2 -23 0 -26 6
-5 7 -29 8 -66 4 -42 -4 -60 -2 -60 6 0 6 -9 11 -19 11 -31 0 -33 17 -3 25
l27 8 -25 7 c-14 5 -42 8 -62 9 l-38 1 0 -140z m74 85 c8 -8 19 -15 25 -15 6
0 11 -4 11 -10 0 -16 -21 -12 -39 8 -9 11 -23 21 -31 25 -12 4 -12 6 2 6 9 1
23 -6 32 -14z m166 -24 c0 -10 -35 -21 -69 -21 -15 0 -21 4 -15 9 18 17 84 27
84 12z m30 -36 c0 -8 -4 -17 -10 -20 -6 -4 -10 5 -10 20 0 15 4 24 10 20 6 -3
10 -12 10 -20z m-30 5 c0 -5 -12 -10 -27 -9 l-28 1 25 8 c14 4 26 8 28 9 1 1
2 -3 2 -9z m60 -15 c0 -8 -4 -15 -10 -15 -5 0 -10 7 -10 15 0 8 5 15 10 15 6
0 10 -7 10 -15z m144 -87 c-7 -10 -24 -10 -24 0 0 5 7 9 15 9 8 0 12 -4 9 -9z
m6 -42 c0 -3 -4 -8 -10 -11 -5 -3 -10 -1 -10 4 0 6 5 11 10 11 6 0 10 -2 10
-4z"/>
<path d="M270 240 c0 -9 31 -30 44 -30 3 0 -2 9 -11 20 -19 21 -33 26 -33 10z"/>
<path d="M1388 243 c6 -2 18 -2 25 0 6 3 1 5 -13 5 -14 0 -19 -2 -12 -5z"/>
<path d="M138 233 c7 -3 16 -2 19 1 4 3 -2 6 -13 5 -11 0 -14 -3 -6 -6z"/>
<path d="M327 152 c4 -10 9 -10 22 0 9 7 17 13 19 14 2 1 -8 1 -21 0 -15 0
-23 -6 -20 -14z"/>
<path d="M743 62 c-13 -2 -23 -8 -23 -14 0 -6 10 -8 26 -4 14 4 32 2 39 -4 14
-12 45 -3 45 12 0 6 -8 8 -19 5 -10 -2 -24 -1 -32 2 -8 4 -24 5 -36 3z"/>
<path d="M850 43 c0 -13 3 -14 11 -6 6 6 18 9 25 6 8 -3 14 0 14 6 0 6 -11 11
-25 11 -17 0 -25 -6 -25 -17z"/>
<path d="M925 50 c-17 -7 -17 -9 -2 -9 9 -1 17 -7 17 -13 0 -10 2 -10 9 0 4 8
16 12 26 10 10 -2 20 3 22 10 5 14 -40 16 -72 2z"/>
<path d="M2605 50 c-13 -6 -15 -9 -5 -9 8 0 22 4 30 9 18 12 2 12 -25 0z"/>
<path d="M2665 50 c11 -5 27 -9 35 -9 9 0 8 4 -5 9 -11 5 -27 9 -35 9 -9 0 -8
-4 5 -9z"/>
<path d="M2203 35 c15 -8 27 -20 27 -25 0 -6 5 -10 11 -10 5 0 7 4 4 10 -3 6
1 7 9 4 9 -3 16 -2 16 4 0 5 -12 12 -27 14 -16 3 -37 8 -48 12 -11 4 -8 0 8
-9z"/>
<path d="M1690 36 c0 -2 7 -7 16 -10 8 -3 12 -2 9 4 -6 10 -25 14 -25 6z"/>
<path d="M2420 36 c0 -2 15 -6 34 -8 19 -2 32 0 30 4 -5 8 -64 12 -64 4z"/>
<path d="M632 14 c-7 -8 -8 -14 -3 -14 10 0 25 19 20 25 -2 1 -10 -3 -17 -11z"/>
<path d="M2007 19 c7 -7 15 -10 18 -7 3 3 -2 9 -12 12 -14 6 -15 5 -6 -5z"/>
<path d="M2599 22 c11 -8 11 -10 0 -14 -8 -3 20 -5 61 -5 l75 -1 -55 8 c-30 4
-64 11 -75 15 -14 5 -16 4 -6 -3z"/>
</g>
</svg>
