<?xml version="1.0" standalone="no"?>
<!DOCTYPE svg PUBLIC "-//W3C//DTD SVG 20010904//EN"
 "http://www.w3.org/TR/2001/REC-SVG-20010904/DTD/svg10.dtd">
<svg version="1.0" xmlns="http://www.w3.org/2000/svg"
 width="211.000000pt" height="174.000000pt" viewBox="0 0 211.000000 174.000000"
 preserveAspectRatio="xMidYMid meet">
<metadata>
Created by potrace 1.16, written by Peter Selinger 2001-2019
</metadata>
<g transform="translate(0.000000,174.000000) scale(0.100000,-0.100000)"
fill="#000000" stroke="none">
<path d="M1007 1618 l-89 -73 6 -60 c3 -33 9 -136 12 -230 l6 -170 -193 192
c-231 229 -267 249 -366 208 -50 -21 -72 -42 -94 -90 -39 -84 -21 -140 77
-245 47 -49 70 -80 60 -80 -9 0 -16 -1 -16 -3 0 -2 -32 -111 -70 -242 -39
-131 -70 -244 -70 -251 0 -9 21 -14 68 -16 l67 -3 3 -253 2 -252 708 2 707 3
3 253 2 252 56 0 c54 0 56 1 50 22 -3 13 -28 119 -56 236 l-50 213 0 185 c0
282 -2 284 -245 284 -240 0 -245 -5 -245 -265 l0 -166 -37 3 -38 3 -3 94 c-1
52 4 155 13 229 12 104 13 138 4 149 -20 23 -166 143 -176 143 -4 0 -48 -33
-96 -72z m73 -51 c0 -22 -8 -41 -24 -56 -13 -13 -27 -34 -30 -47 -7 -28 16
-79 39 -88 87 -33 156 67 89 129 -20 18 -25 31 -22 59 l3 36 48 -37 48 -38 -6
-84 c-9 -141 0 -131 -125 -131 l-107 0 -12 103 -12 102 48 42 c26 24 51 43 56
43 4 0 7 -15 7 -33z m-570 -139 c19 -13 35 -28 37 -33 2 -6 -35 -48 -82 -95
-83 -83 -85 -84 -105 -65 -40 36 -44 119 -8 163 21 26 71 52 99 52 14 0 41
-10 59 -22z m1242 5 c11 -10 18 -30 18 -55 l0 -38 -185 0 -185 0 0 37 c0 68
13 73 183 73 126 0 153 -3 169 -17z m-1137 -103 c19 -21 18 -22 -68 -108 l-87
-87 -22 23 -23 22 85 85 c47 47 87 85 91 85 3 0 14 -9 24 -20z m1155 -150 l0
-110 -44 0 -44 0 5 45 c5 41 3 47 -30 80 -27 27 -43 35 -72 35 -29 0 -45 -8
-72 -35 -33 -33 -35 -39 -30 -80 l5 -45 -44 0 -44 0 0 110 0 110 185 0 185 0
0 -110z m-995 -10 l100 -100 -70 0 -69 0 -63 62 c-35 34 -63 67 -63 72 0 11
50 66 60 66 3 0 50 -45 105 -100z m435 -5 l0 -96 -106 3 -106 3 1 88 c0 48 0
89 1 92 0 3 47 5 105 5 l105 0 0 -95z m90 -160 c0 -22 -102 -368 -113 -382
-14 -19 -847 -19 -847 0 0 6 25 97 55 202 30 104 55 191 55 192 0 2 191 3 425
3 372 0 425 -2 425 -15z m519 -157 c23 -95 43 -186 44 -203 l2 -30 -193 -3
c-192 -2 -192 -2 -202 20 -9 22 -90 362 -90 379 0 5 90 9 199 9 l199 0 41
-172z m-504 -735 c-3 -10 -98 -13 -430 -13 l-425 0 0 230 0 230 384 0 384 0
20 68 c11 37 28 94 37 127 10 33 20 65 24 70 7 12 14 -694 6 -712z m110 470
c5 -23 7 -23 175 -23 l170 0 0 -230 0 -230 -200 0 -200 0 1 348 1 347 24 -95
c13 -52 26 -105 29 -117z"/>
</g>
</svg>
